solid OBJECT
  facet normal -0.91908192274878553 -2.995320876214861e-08 0.3940665163096132
    outer loop
      vertex 483.50060424602668 79.147924658362513 234.63110603038581
      vertex 496.36676132510013 43.07783983397826 264.63886060174133
      vertex 499.36236728848951 84.777146942565139 271.62552002015923
    endloop
  endfacet
  facet normal -0.91908204110080505 2.8847796937005026e-09 0.39406624027690834
    outer loop
      vertex 418.032023611905 -137.47113797277498 81.938523717736444
      vertex 400.4366999448211 -109.53755758821339 40.900889895079274
      vertex 400.59682074907761 -161.33130567466731 41.274340574104492
    endloop
  endfacet
  facet normal -0.91908193965265828 -0 0.39406647688468421
    outer loop
      vertex 400.580181216028 -57.711194156938305 41.235532094813514
      vertex 382.89999389648438 -33.333333333333329 0
      vertex 382.89999389648438 -83.777777777777786 0
    endloop
  endfacet
  facet normal -0.91908204055353204 -3.2483732529538524e-07 0.39406624155318087
    outer loop
      vertex 446.1156676678786 76.802037737715693 147.43806965276644
      vertex 456.84284537930898 118 172.45713681309599
      vertex 438.35713505726903 118 129.3428515170562
    endloop
  endfacet
  facet normal -0.91908192032489577 -2.860926900871309e-07 0.39406652196275221
    outer loop
      vertex 465.12328894390868 73.483540823136025 191.76959502130683
      vertex 475.32856885540508 118 215.57141646918745
      vertex 456.84284537930898 118 172.45713681309599
    endloop
  endfacet
  facet normal -0.91908204007811767 -2.9642680394567465e-08 0.39406624266212426
    outer loop
      vertex 495.29129592143295 -58.24104148955292 262.13055593025069
      vertex 512.29998779296875 -33.3333333333333 301.79998779296875
      vertex 494.69139160420684 -6.6824360254244652 260.7314009260873
    endloop
  endfacet
  facet normal -0.91908201196432682 2.061901452377736e-07 0.39406630823195532
    outer loop
      vertex 499.35377975072004 -302.82991726831801 271.60549126900025
      vertex 493.81427434301389 -336 258.68570383804627
      vertex 512.29998779296875 -336 301.79998779296875
    endloop
  endfacet
  facet normal -0.91908193179527764 -0 0.39406649521046611
    outer loop
      vertex 400.03370407120769 -6.6364080910526617 39.960980285306114
      vertex 382.89999389648438 17.111111111111107 0
      vertex 382.89999389648438 -33.333333333333329 0
    endloop
  endfacet
  facet normal -0.9190820829965437 -1.5716150500020544e-08 0.39406614256331912
    outer loop
      vertex 426.21836504709324 76.79764933108072 101.03154671695393
      vertex 438.35713505726903 118 129.3428515170562
      vertex 419.87142937885807 118 86.228564230005077
    endloop
  endfacet
  facet normal -0.91908192032489089 3.0246697886979095e-07 0.39406652196275077
    outer loop
      vertex 465.29688594769152 -292.42050944972124 192.17447443425829
      vertex 456.84284537930893 -336 172.4571368130959
      vertex 475.32856885540508 -336 215.57141646918743
    endloop
  endfacet
  facet normal -0.91908200143122332 -6.9708190231276767e-08 0.39406633279839037
    outer loop
      vertex 426.35640025248381 -295.50260051317377 101.35348695666917
      vertex 402.91668011278028 -299.07836763060413 46.684962002347781
      vertex 419.87142937885807 -336 86.228564230005048
    endloop
  endfacet
  facet normal -0.91908204055353226 3.2578082513967316e-07 0.39406624155318004
    outer loop
      vertex 446.37774148873524 -295.83371182951339 148.04930607415739
      vertex 438.35713505726903 -336 129.34285151705615
      vertex 456.84284537930893 -336 172.4571368130959
    endloop
  endfacet
  facet normal -0.91908207397749953 0 0.3940661635984728
    outer loop
      vertex 496.36676132510013 43.07783983397826 264.63886060174133
      vertex 512.29998779296875 17.111111111111175 301.79998779296875
      vertex 512.29998779296875 67.5555555555556 301.79998779296875
    endloop
  endfacet
  facet normal -0.91908207187549262 0 0.39406616850099152
    outer loop
      vertex 496.2884023423502 -261.52385349813665 264.45610418594714
      vertex 512.29998779296875 -285.55555555555554 301.79998779296875
      vertex 512.29998779296875 -235.11111111111111 301.79998779296875
    endloop
  endfacet
  facet normal -0.91908205163550682 8.8281560391354846e-08 0.39406621570677647
    outer loop
      vertex 494.69139160420684 -6.6824360254244652 260.7314009260873
      vertex 512.29998779296875 17.111111111111175 301.79998779296875
      vertex 496.36676132510013 43.07783983397826 264.63886060174133
    endloop
  endfacet
  facet normal -0.91908209400142193 0 0.3940661168965956
    outer loop
      vertex 499.36236728848951 84.777146942565139 271.62552002015923
      vertex 512.29998779296875 67.5555555555556 301.79998779296875
      vertex 512.29998779296875 118 301.79998779296875
    endloop
  endfacet
  facet normal -0.91908193988429265 -0 0.39406647634444292
    outer loop
      vertex 400.59682074907761 -161.33130567466731 41.274340574104492
      vertex 382.89999389648438 -134.22222222222223 0
      vertex 382.89999389648438 -184.66666666666669 0
    endloop
  endfacet
  facet normal -0.91908208358843613 -5.0254807208492631e-08 0.39406614118284305
    outer loop
      vertex 496.2884023423502 -261.52385349813665 264.45610418594714
      vertex 499.35377975072004 -302.82991726831801 271.60549126900025
      vertex 512.29998779296875 -285.55555555555554 301.79998779296875
    endloop
  endfacet
  facet normal -0.91908199772104693 -2.0216520305242782e-07 0.3940663414515998
    outer loop
      vertex 475.50717836695594 23.399008000415506 215.98798855681483
      vertex 496.36676132510013 43.07783983397826 264.63886060174133
      vertex 483.50060424602668 79.147924658362513 234.63110603038581
    endloop
  endfacet
  facet normal -0.91908207067138903 -1.7728479985100688e-07 0.39406617130928662
    outer loop
      vertex 416.81097370818674 -247.88690826562589 79.090672762070028
      vertex 426.35640025248381 -295.50260051317377 101.35348695666917
      vertex 436.92876580436365 -261.54443721583505 126.01147170907358
    endloop
  endfacet
  facet normal -0.91908190441842541 -1.3668333757252078e-07 0.39406655906151394
    outer loop
      vertex 400.11922630484094 -211.87714283939471 40.160444286067211
      vertex 382.89999389648438 -235.11111111111117 0
      vertex 396.85423673772993 -255.19227652640436 32.545490211176315
    endloop
  endfacet
  facet normal -0.91908196140588005 -1.0005163367715121e-07 0.39406642614959031
    outer loop
      vertex 457.23265301547445 -201.86102837917875 173.3662845286751
      vertex 454.26368721385404 -250.64049910106559 166.44174690838526
      vertex 475.47932383211247 -242.50818576500723 215.92302324993454
    endloop
  endfacet
  facet normal -0.9190819670478243 -2.3569462045802927e-07 0.39406641299081352
    outer loop
      vertex 446.1156676678786 76.802037737715693 147.43806965276644
      vertex 438.35713505726903 118 129.3428515170562
      vertex 426.21836504709324 76.79764933108072 101.03154671695393
    endloop
  endfacet
  facet normal -0.91908200393322292 -3.862408778132808e-07 0.39406632696278715
    outer loop
      vertex 465.12328894390868 73.483540823136025 191.76959502130683
      vertex 456.84284537930898 118 172.45713681309599
      vertex 446.1156676678786 76.802037737715693 147.43806965276644
    endloop
  endfacet
  facet normal -0.91908194601147952 2.1349207584995227e-07 0.39406646205393597
    outer loop
      vertex 402.91668011278028 -299.07836763060413 46.684962002347781
      vertex 396.85423673772993 -255.19227652640436 32.545490211176315
      vertex 382.89999389648438 -285.5555555555556 0
    endloop
  endfacet
  facet normal -0.9190818738736195 -0 0.39406663030121747
    outer loop
      vertex 396.85423673772993 -255.19227652640436 32.545490211176315
      vertex 382.89999389648438 -235.11111111111117 0
      vertex 382.89999389648438 -285.5555555555556 0
    endloop
  endfacet
  facet normal -0.91908204992336251 -1.3314813475412082e-08 0.39406621970002631
    outer loop
      vertex 495.29129592143295 -58.24104148955292 262.13055593025069
      vertex 495.55044035236682 -109.05919373097601 262.73495769388325
      vertex 512.29998779296875 -83.777777777777786 301.79998779296875
    endloop
  endfacet
  facet normal -0.91908199720621864 3.9850951573177821e-07 0.3940663426521851
    outer loop
      vertex 446.37774148873524 -295.83371182951339 148.04930607415739
      vertex 456.84284537930893 -336 172.4571368130959
      vertex 465.29688594769152 -292.42050944972124 192.17447443425829
    endloop
  endfacet
  facet normal -0.91908195038770502 6.592292909681054e-08 0.39406645184730943
    outer loop
      vertex 403.02312172473415 80.313226364459922 46.933216390309916
      vertex 401.38571408345467 118 43.11428106634456
      vertex 382.89999389648438 118 0
    endloop
  endfacet
  facet normal -0.91908199976370564 6.6849308926126645e-08 0.39406633668754693
    outer loop
      vertex 403.02312172473415 80.313226364459922 46.933216390309916
      vertex 426.21836504709324 76.79764933108072 101.03154671695393
      vertex 419.87142937885807 118 86.228564230005077
    endloop
  endfacet
  facet normal -0.91908204431745644 8.7473460437094921e-08 0.39406623277469138
    outer loop
      vertex 416.81097370818674 -247.88690826562589 79.090672762070028
      vertex 418.77849542236669 -189.96952988782141 83.679517638073136
      vertex 400.11922630484094 -211.87714283939471 40.160444286067211
    endloop
  endfacet
  facet normal -0.91908199509684974 -5.0976563655580363e-08 0.39406634757207015
    outer loop
      vertex 402.91668011278028 -299.07836763060413 46.684962002347781
      vertex 401.38571408345467 -336 43.114281066344518
      vertex 419.87142937885807 -336 86.228564230005048
    endloop
  endfacet
  facet normal -0.91908192282876755 2.6571246594688477e-08 0.39406651612307081
    outer loop
      vertex 483.50060424602736 -297.14792465836348 234.63110603038734
      vertex 499.35377975072004 -302.82991726831801 271.60549126900025
      vertex 496.2884023423502 -261.52385349813665 264.45610418594714
    endloop
  endfacet
  facet normal -0.91908209400142227 0 0.39406611689659499
    outer loop
      vertex 499.35377975072004 -302.82991726831801 271.60549126900025
      vertex 512.29998779296875 -336 301.79998779296875
      vertex 512.29998779296875 -285.55555555555554 301.79998779296875
    endloop
  endfacet
  facet normal -0.91908205268970811 -3.9751549770344479e-08 0.3940662132480674
    outer loop
      vertex 475.47932383211247 -242.50818576500723 215.92302324993454
      vertex 494.61463737151024 -211.56560673378408 260.55238726393401
      vertex 477.6525670768421 -184.77644046275358 220.99169214398441
    endloop
  endfacet
  facet normal -0.91908216844075408 -6.5329756753703567e-08 0.39406594328137096
    outer loop
      vertex 483.50060424602736 -297.14792465836348 234.63110603038734
      vertex 465.29688594769152 -292.42050944972124 192.17447443425829
      vertex 475.32856885540508 -336 215.57141646918743
    endloop
  endfacet
  facet normal -0.91908203311116232 0 0.39406625891117919
    outer loop
      vertex 494.69139160420684 -6.6824360254244652 260.7314009260873
      vertex 512.29998779296875 -33.3333333333333 301.79998779296875
      vertex 512.29998779296875 17.111111111111175 301.79998779296875
    endloop
  endfacet
  facet normal -0.91908199509684951 5.3413832558713279e-08 0.39406634757207015
    outer loop
      vertex 403.02312172473415 80.313226364459922 46.933216390309916
      vertex 419.87142937885807 118 86.228564230005077
      vertex 401.38571408345467 118 43.11428106634456
    endloop
  endfacet
  facet normal -0.91908193596384935 1.7228141466399494e-08 0.39406648548809936
    outer loop
      vertex 400.580181216028 -57.711194156938305 41.235532094813514
      vertex 400.03370407120769 -6.6364080910526617 39.960980285306114
      vertex 382.89999389648438 -33.333333333333329 0
    endloop
  endfacet
  facet normal -0.91908203355449525 2.9625405126307673e-08 0.39406625787719124
    outer loop
      vertex 418.6804556916498 -29.696421203663483 83.450859873992272
      vertex 400.580181216028 -57.711194156938305 41.235532094813514
      vertex 418.0442369856039 -83.505764949695219 81.967008931857833
    endloop
  endfacet
  facet normal -0.91908204570745355 0 0.39406622953280623
    outer loop
      vertex 495.24417651972522 -159.90158434056829 262.02065949376998
      vertex 512.29998779296875 -184.66666666666669 301.79998779296875
      vertex 512.29998779296875 -134.22222222222223 301.79998779296875
    endloop
  endfacet
  facet normal -0.91908202660075511 -9.6991819466389143e-09 0.39406627409542272
    outer loop
      vertex 418.77849542236669 -189.96952988782141 83.679517638073136
      vertex 400.59682074907761 -161.33130567466731 41.274340574104492
      vertex 400.11922630484094 -211.87714283939471 40.160444286067211
    endloop
  endfacet
  facet normal -0.91908196955976895 -0 0.39406640713227015
    outer loop
      vertex 403.02312172473415 80.313226364459922 46.933216390309916
      vertex 382.89999389648438 118 0
      vertex 382.89999389648438 67.555555555555543 0
    endloop
  endfacet
  facet normal -0.91908204752789691 -8.5488313841925671e-08 0.3940662252869705
    outer loop
      vertex 418.6804556916498 -29.696421203663483 83.450859873992272
      vertex 416.74962115067586 28.927786604319067 78.947580379843984
      vertex 400.03370407120769 -6.6364080910526617 39.960980285306114
    endloop
  endfacet
  facet normal -0.91908208470575192 4.4970072320029517e-08 0.39406613857692369
    outer loop
      vertex 499.36236728848951 84.777146942565139 271.62552002015923
      vertex 496.36676132510013 43.07783983397826 264.63886060174133
      vertex 512.29998779296875 67.5555555555556 301.79998779296875
    endloop
  endfacet
  facet normal -0.91908201196432682 -2.0572608415225821e-07 0.39406630823195582
    outer loop
      vertex 499.36236728848951 84.777146942565139 271.62552002015923
      vertex 512.29998779296875 118 301.79998779296875
      vertex 493.81427434301389 118 258.68570383804632
    endloop
  endfacet
  facet normal -0.91908196840878964 -0 0.39406640981670177
    outer loop
      vertex 402.91668011278028 -299.07836763060413 46.684962002347781
      vertex 382.89999389648438 -285.5555555555556 0
      vertex 382.89999389648438 -336 0
    endloop
  endfacet
  facet normal -0.91908195038770502 -6.2914870892342046e-08 0.39406645184730976
    outer loop
      vertex 402.91668011278028 -299.07836763060413 46.684962002347781
      vertex 382.89999389648438 -336 0
      vertex 401.38571408345467 -336 43.114281066344518
    endloop
  endfacet
  facet normal -0.91908204681903194 0 0.39406622694026811
    outer loop
      vertex 495.29129592143295 -58.24104148955292 262.13055593025069
      vertex 512.29998779296875 -83.777777777777786 301.79998779296875
      vertex 512.29998779296875 -33.3333333333333 301.79998779296875
    endloop
  endfacet
  facet normal -0.91908197854542861 -2.6757858385126405e-07 0.39406638617490408
    outer loop
      vertex 454.26368721385404 -250.64049910106559 166.44174690838526
      vertex 446.37774148873524 -295.83371182951339 148.04930607415739
      vertex 465.29688594769152 -292.42050944972124 192.17447443425829
    endloop
  endfacet
  facet normal -0.91908208954023352 2.0546792612617611e-07 0.39406612730139101
    outer loop
      vertex 416.74962115067586 28.927786604319067 78.947580379843984
      vertex 436.20752796417537 42.017687740666759 124.32933162332952
      vertex 426.21836504709324 76.79764933108072 101.03154671695393
    endloop
  endfacet
  facet normal -0.91908190337839202 1.3202934531730053e-07 0.39406656148718688
    outer loop
      vertex 396.85423673772914 37.192276526404214 32.545490211174453
      vertex 382.89999389648438 17.111111111111107 0
      vertex 400.03370407120769 -6.6364080910526617 39.960980285306114
    endloop
  endfacet
  facet normal -0.91908193305785491 -0 0.39406649226575552
    outer loop
      vertex 400.11922630484094 -211.87714283939471 40.160444286067211
      vertex 382.89999389648438 -184.66666666666669 0
      vertex 382.89999389648438 -235.11111111111117 0
    endloop
  endfacet
  facet normal -0.91908193677911365 -1.5164514831275048e-08 0.39406648358665708
    outer loop
      vertex 400.11922630484094 -211.87714283939471 40.160444286067211
      vertex 400.59682074907761 -161.33130567466731 41.274340574104492
      vertex 382.89999389648438 -184.66666666666669 0
    endloop
  endfacet
  facet normal -0.91908193864299814 -4.4100035063329342e-09 0.3940664792395161
    outer loop
      vertex 400.4366999448211 -109.53755758821339 40.900889895079274
      vertex 400.580181216028 -57.711194156938305 41.235532094813514
      vertex 382.89999389648438 -83.777777777777786 0
    endloop
  endfacet
  facet normal -0.91908203141600053 -2.8993649471790422e-08 0.39406626286480922
    outer loop
      vertex 477.89971246873421 -33.333333333333201 221.56811089656972
      vertex 495.29129592143295 -58.24104148955292 262.13055593025069
      vertex 494.69139160420684 -6.6824360254244652 260.7314009260873
    endloop
  endfacet
  facet normal -0.91908193763705837 -0 0.39406648158567159
    outer loop
      vertex 400.4366999448211 -109.53755758821339 40.900889895079274
      vertex 382.89999389648438 -83.777777777777786 0
      vertex 382.89999389648438 -134.22222222222223 0
    endloop
  endfacet
  facet normal -0.91908193871317634 4.9231340609203146e-09 0.39406647907583991
    outer loop
      vertex 400.4366999448211 -109.53755758821339 40.900889895079274
      vertex 382.89999389648438 -134.22222222222223 0
      vertex 400.59682074907761 -161.33130567466731 41.274340574104492
    endloop
  endfacet
  facet normal -0.91908202903357739 1.081551929801225e-08 0.39406626842134318
    outer loop
      vertex 418.6804556916498 -29.696421203663483 83.450859873992272
      vertex 400.03370407120769 -6.6364080910526617 39.960980285306114
      vertex 400.580181216028 -57.711194156938305 41.235532094813514
    endloop
  endfacet
  facet normal -0.91908196651461938 1.9942386819397232e-07 0.39406641423442879
    outer loop
      vertex 453.50629473923192 30.322278335003375 164.6752756741989
      vertex 475.50717836695594 23.399008000415506 215.98798855681483
      vertex 465.12328894390868 73.483540823136025 191.76959502130683
    endloop
  endfacet
  facet normal -0.91908208299654348 1.4401888878883561e-08 0.39406614256331929
    outer loop
      vertex 426.35640025248381 -295.50260051317377 101.35348695666917
      vertex 419.87142937885807 -336 86.228564230005048
      vertex 438.35713505726903 -336 129.34285151705615
    endloop
  endfacet
  facet normal -0.91908196842676426 2.3303317555553412e-07 0.39406640977470964
    outer loop
      vertex 426.35640025248381 -295.50260051317377 101.35348695666917
      vertex 438.35713505726903 -336 129.34285151705615
      vertex 446.37774148873524 -295.83371182951339 148.04930607415739
    endloop
  endfacet
  facet normal -0.91908216318998825 7.2441907865146497e-08 0.39406595552776008
    outer loop
      vertex 483.50060424602668 79.147924658362513 234.63110603038581
      vertex 475.32856885540508 118 215.57141646918745
      vertex 465.12328894390868 73.483540823136025 191.76959502130683
    endloop
  endfacet
  facet normal -0.91908215708939545 -5.5015080281527201e-08 0.39406596975620822
    outer loop
      vertex 475.50717836695594 23.399008000415506 215.98798855681483
      vertex 483.50060424602668 79.147924658362513 234.63110603038581
      vertex 465.12328894390868 73.483540823136025 191.76959502130683
    endloop
  endfacet
  facet normal -0.91908190535476375 3.1877423098844534e-07 0.39406655687758535
    outer loop
      vertex 453.50629473923192 30.322278335003375 164.6752756741989
      vertex 446.1156676678786 76.802037737715693 147.43806965276644
      vertex 436.20752796417537 42.017687740666759 124.32933162332952
    endloop
  endfacet
  facet normal -0.91908198708828648 2.3508313260126935e-07 0.39406636625039626
    outer loop
      vertex 453.50629473923192 30.322278335003375 164.6752756741989
      vertex 465.12328894390868 73.483540823136025 191.76959502130683
      vertex 446.1156676678786 76.802037737715693 147.43806965276644
    endloop
  endfacet
  facet normal -0.91908199996098927 2.0487035405488805e-07 0.39406633622737441
    outer loop
      vertex 475.47932383211247 -242.50818576500723 215.92302324993454
      vertex 483.50060424602736 -297.14792465836348 234.63110603038734
      vertex 496.2884023423502 -261.52385349813665 264.45610418594714
    endloop
  endfacet
  facet normal -0.91908203873161576 3.093787650350361e-08 0.39406624580257527
    outer loop
      vertex 494.61463737151024 -211.56560673378408 260.55238726393401
      vertex 512.29998779296875 -184.66666666666669 301.79998779296875
      vertex 495.24417651972522 -159.90158434056829 262.02065949376998
    endloop
  endfacet
  facet normal -0.91908205304420476 0 0.39406621242127493
    outer loop
      vertex 495.55044035236682 -109.05919373097601 262.73495769388325
      vertex 512.29998779296875 -134.22222222222223 301.79998779296875
      vertex 512.29998779296875 -83.777777777777786 301.79998779296875
    endloop
  endfacet
  facet normal -0.91908204937984994 1.5707218472920646e-08 0.39406622096766286
    outer loop
      vertex 495.55044035236682 -109.05919373097601 262.73495769388325
      vertex 495.24417651972522 -159.90158434056829 262.02065949376998
      vertex 512.29998779296875 -134.22222222222223 301.79998779296875
    endloop
  endfacet
  facet normal -0.91908200905501103 1.4142980296317498e-08 0.39406631501741501
    outer loop
      vertex 479.04171804786625 -134.02642845645158 224.23161769444684
      vertex 495.24417651972522 -159.90158434056829 262.02065949376998
      vertex 495.55044035236682 -109.05919373097601 262.73495769388325
    endloop
  endfacet
  facet normal -0.91908196707063139 4.3197928512991064e-07 0.39406641293745409
    outer loop
      vertex 436.20752796417537 42.017687740666759 124.32933162332952
      vertex 446.1156676678786 76.802037737715693 147.43806965276644
      vertex 426.21836504709324 76.79764933108072 101.03154671695393
    endloop
  endfacet
  facet normal -0.9190818738736195 -0 0.39406663030121758
    outer loop
      vertex 396.85423673772914 37.192276526404214 32.545490211174453
      vertex 382.89999389648438 67.555555555555543 0
      vertex 382.89999389648438 17.111111111111107 0
    endloop
  endfacet
  facet normal -0.91908194797066534 -2.1929029112766711e-07 0.39406645748452035
    outer loop
      vertex 396.85423673772914 37.192276526404214 32.545490211174453
      vertex 403.02312172473415 80.313226364459922 46.933216390309916
      vertex 382.89999389648438 67.555555555555543 0
    endloop
  endfacet
  facet normal -0.91908204094261492 -2.5861906781230783e-09 0.39406624064585549
    outer loop
      vertex 418.0442369856039 -83.505764949695219 81.967008931857833
      vertex 400.580181216028 -57.711194156938305 41.235532094813514
      vertex 400.4366999448211 -109.53755758821339 40.900889895079274
    endloop
  endfacet
  facet normal -0.91908201920196964 2.5925756682126321e-08 0.3940662913516324
    outer loop
      vertex 478.93685573507031 -84.204501797416356 223.98704666250376
      vertex 495.29129592143295 -58.24104148955292 262.13055593025069
      vertex 477.89971246873421 -33.333333333333201 221.56811089656972
    endloop
  endfacet
  facet normal -0.91908203142442457 0 0.394066262845163
    outer loop
      vertex 494.61463737151024 -211.56560673378408 260.55238726393401
      vertex 512.29998779296875 -235.11111111111111 301.79998779296875
      vertex 512.29998779296875 -184.66666666666669 301.79998779296875
    endloop
  endfacet
  facet normal -0.91908204949069117 -8.7384757720039193e-08 0.39406622070913772
    outer loop
      vertex 494.61463737151024 -211.56560673378408 260.55238726393401
      vertex 496.2884023423502 -261.52385349813665 264.45610418594714
      vertex 512.29998779296875 -235.11111111111111 301.79998779296875
    endloop
  endfacet
  facet normal -0.91908208474046538 1.7870157680832752e-07 0.39406613849592309
    outer loop
      vertex 483.50060424602668 79.147924658362513 234.63110603038581
      vertex 493.81427434301389 118 258.68570383804632
      vertex 475.32856885540508 118 215.57141646918745
    endloop
  endfacet
  facet normal -0.91908191859539101 -1.0531768214174809e-07 0.39406652599656794
    outer loop
      vertex 483.50060424602668 79.147924658362513 234.63110603038581
      vertex 499.36236728848951 84.777146942565139 271.62552002015923
      vertex 493.81427434301389 118 258.68570383804632
    endloop
  endfacet
  facet normal -0.91908203292867374 -3.5570001685001795e-08 0.39406625933679607
    outer loop
      vertex 418.77849542236669 -189.96952988782141 83.679517638073136
      vertex 418.032023611905 -137.47113797277498 81.938523717736444
      vertex 400.59682074907761 -161.33130567466731 41.274340574104492
    endloop
  endfacet
  facet normal -0.91908204166927188 5.7889568857396706e-10 0.39406623895107074
    outer loop
      vertex 418.032023611905 -137.47113797277498 81.938523717736444
      vertex 418.0442369856039 -83.505764949695219 81.967008931857833
      vertex 400.4366999448211 -109.53755758821339 40.900889895079274
    endloop
  endfacet
  facet normal -0.91908208934088609 -4.6921118058961671e-08 0.39406612776638061
    outer loop
      vertex 416.81097370818674 -247.88690826562589 79.090672762070028
      vertex 400.11922630484094 -211.87714283939471 40.160444286067211
      vertex 396.85423673772993 -255.19227652640436 32.545490211176315
    endloop
  endfacet
  facet normal -0.91908196999882663 -3.7912174709216963e-07 0.39406640610807253
    outer loop
      vertex 436.92876580436365 -261.54443721583505 126.01147170907358
      vertex 426.35640025248381 -295.50260051317377 101.35348695666917
      vertex 446.37774148873524 -295.83371182951339 148.04930607415739
    endloop
  endfacet
  facet normal -0.91908197711381101 1.1109628630274479e-07 0.39406638951394424
    outer loop
      vertex 436.48354349092267 -1.7697129231058852 124.97308151547075
      vertex 456.9339726585585 -17.274159838881928 172.6696704528992
      vertex 453.50629473923192 30.322278335003375 164.6752756741989
    endloop
  endfacet
  facet normal -0.91908209051059231 4.4610264407118258e-08 0.39406612503827004
    outer loop
      vertex 416.74962115067586 28.927786604319067 78.947580379843984
      vertex 396.85423673772914 37.192276526404214 32.545490211174453
      vertex 400.03370407120769 -6.6364080910526617 39.960980285306114
    endloop
  endfacet
  facet normal -0.91908203541653455 3.0677747238222683e-08 0.39406625353435049
    outer loop
      vertex 477.6525670768421 -184.77644046275358 220.99169214398441
      vertex 494.61463737151024 -211.56560673378408 260.55238726393401
      vertex 495.24417651972522 -159.90158434056829 262.02065949376998
    endloop
  endfacet
  facet normal -0.91908202111106507 -3.4471376894453345e-08 0.39406628689904244
    outer loop
      vertex 477.6525670768421 -184.77644046275358 220.99169214398441
      vertex 495.24417651972522 -159.90158434056829 262.02065949376998
      vertex 479.04171804786625 -134.02642845645158 224.23161769444684
    endloop
  endfacet
  facet normal -0.91908196123298058 2.7606319296266954e-08 0.39406642655285579
    outer loop
      vertex 457.23265301547445 -201.86102837917875 173.3662845286751
      vertex 477.6525670768421 -184.77644046275358 220.99169214398441
      vertex 460.52546050697873 -153.6575788980679 181.04610303797574
    endloop
  endfacet
  facet normal -0.91908194922285891 -6.4833237535184449e-08 0.3940664545640824
    outer loop
      vertex 457.23265301547445 -201.86102837917875 173.3662845286751
      vertex 475.47932383211247 -242.50818576500723 215.92302324993454
      vertex 477.6525670768421 -184.77644046275358 220.99169214398441
    endloop
  endfacet
  facet normal -0.91908204349807965 -7.1827494010718226e-08 0.39406623468573015
    outer loop
      vertex 432.0842787222698 -111.30389310763286 114.71265173308888
      vertex 418.032023611905 -137.47113797277498 81.938523717736444
      vertex 438.9255778807393 -160.90324569078678 130.66862840580512
    endloop
  endfacet
  facet normal -0.91908199920924794 9.0406893068563074e-08 0.39406633798070551
    outer loop
      vertex 416.74962115067586 28.927786604319067 78.947580379843984
      vertex 426.21836504709324 76.79764933108072 101.03154671695393
      vertex 403.02312172473415 80.313226364459922 46.933216390309916
    endloop
  endfacet
  facet normal -0.91908209858340251 -8.0537455729278068e-08 0.39406610621001459
    outer loop
      vertex 416.74962115067586 28.927786604319067 78.947580379843984
      vertex 403.02312172473415 80.313226364459922 46.933216390309916
      vertex 396.85423673772914 37.192276526404214 32.545490211174453
    endloop
  endfacet
  facet normal -0.91908193482573519 -3.1670547902515925e-07 0.39406648814239775
    outer loop
      vertex 454.26368721385404 -250.64049910106559 166.44174690838526
      vertex 436.92876580436365 -261.54443721583505 126.01147170907358
      vertex 446.37774148873524 -295.83371182951339 148.04930607415739
    endloop
  endfacet
  facet normal -0.91908198075520042 -4.158485237385395e-08 0.3940663810211365
    outer loop
      vertex 460.52546050697873 -153.6575788980679 181.04610303797574
      vertex 477.6525670768421 -184.77644046275358 220.99169214398441
      vertex 479.04171804786625 -134.02642845645158 224.23161769444684
    endloop
  endfacet
  facet normal -0.91908204117895642 -8.5591513254465794e-08 0.39406624009462626
    outer loop
      vertex 475.47932383211247 -242.50818576500723 215.92302324993454
      vertex 496.2884023423502 -261.52385349813665 264.45610418594714
      vertex 494.61463737151024 -211.56560673378408 260.55238726393401
    endloop
  endfacet
  facet normal -0.91908203725258619 -3.5965919291667957e-08 0.39406624925212047
    outer loop
      vertex 438.9255778807393 -160.90324569078678 130.66862840580512
      vertex 418.032023611905 -137.47113797277498 81.938523717736444
      vertex 418.77849542236669 -189.96952988782141 83.679517638073136
    endloop
  endfacet
  facet normal -0.91908208474046538 -1.7870157662416029e-07 0.39406613849592337
    outer loop
      vertex 483.50060424602736 -297.14792465836348 234.63110603038734
      vertex 475.32856885540508 -336 215.57141646918743
      vertex 493.81427434301389 -336 258.68570383804627
    endloop
  endfacet
  facet normal -0.91908191843022058 1.056000356327544e-07 0.39406652638179596
    outer loop
      vertex 483.50060424602736 -297.14792465836348 234.63110603038734
      vertex 493.81427434301389 -336 258.68570383804627
      vertex 499.35377975072004 -302.82991726831801 271.60549126900025
    endloop
  endfacet
  facet normal -0.91908207022693555 1.1121805754365343e-07 0.39406617234591168
    outer loop
      vertex 436.88413606985864 -218.47938126970291 125.90738196052769
      vertex 438.9255778807393 -160.90324569078678 130.66862840580512
      vertex 418.77849542236669 -189.96952988782141 83.679517638073136
    endloop
  endfacet
  facet normal -0.91908206444529683 6.1208963874118615e-10 0.39406618583046593
    outer loop
      vertex 432.0842787222698 -111.30389310763286 114.71265173308888
      vertex 418.0442369856039 -83.505764949695219 81.967008931857833
      vertex 418.032023611905 -137.47113797277498 81.938523717736444
    endloop
  endfacet
  facet normal -0.91908203989817394 8.5736735846120203e-08 0.39406624308179972
    outer loop
      vertex 475.50717836695594 23.399008000415506 215.98798855681483
      vertex 494.69139160420684 -6.6824360254244652 260.7314009260873
      vertex 496.36676132510013 43.07783983397826 264.63886060174133
    endloop
  endfacet
  facet normal -0.91908204973565888 4.5335849806842198e-08 0.39406622013780568
    outer loop
      vertex 475.50717836695594 23.399008000415506 215.98798855681483
      vertex 477.89971246873421 -33.333333333333201 221.56811089656972
      vertex 494.69139160420684 -6.6824360254244652 260.7314009260873
    endloop
  endfacet
  facet normal -0.91908209653251549 7.9592314795187427e-08 0.39406611099330718
    outer loop
      vertex 416.81097370818674 -247.88690826562589 79.090672762070028
      vertex 396.85423673772993 -255.19227652640436 32.545490211176315
      vertex 402.91668011278028 -299.07836763060413 46.684962002347781
    endloop
  endfacet
  facet normal -0.91908200101306059 -8.7359974302837262e-08 0.39406633377366912
    outer loop
      vertex 416.81097370818674 -247.88690826562589 79.090672762070028
      vertex 402.91668011278028 -299.07836763060413 46.684962002347781
      vertex 426.35640025248381 -295.50260051317377 101.35348695666917
    endloop
  endfacet
  facet normal -0.91908195392599601 -2.2571157960759323e-07 0.39406644359488713
    outer loop
      vertex 475.47932383211247 -242.50818576500723 215.92302324993454
      vertex 454.26368721385404 -250.64049910106559 166.44174690838526
      vertex 465.29688594769152 -292.42050944972124 192.17447443425829
    endloop
  endfacet
  facet normal -0.91908216379007823 4.9992919289723061e-08 0.39406595412817069
    outer loop
      vertex 475.47932383211247 -242.50818576500723 215.92302324993454
      vertex 465.29688594769152 -292.42050944972124 192.17447443425829
      vertex 483.50060424602736 -297.14792465836348 234.63110603038734
    endloop
  endfacet
  facet normal -0.91908196596175096 3.2915620805422817e-08 0.3940664155239339
    outer loop
      vertex 459.90356734354197 -64.997968727952696 179.59566476171514
      vertex 478.93685573507031 -84.204501797416356 223.98704666250376
      vertex 477.89971246873421 -33.333333333333201 221.56811089656972
    endloop
  endfacet
  facet normal -0.91908200463059209 -1.2262866281396494e-07 0.394066325336481
    outer loop
      vertex 436.48354349092267 -1.7697129231058852 124.97308151547075
      vertex 439.07839472189011 -59.205802626748323 131.025042503836
      vertex 456.9339726585585 -17.274159838881928 172.6696704528992
    endloop
  endfacet
  facet normal -0.91908200985248534 -1.1998945394868669e-08 0.39406631315746338
    outer loop
      vertex 478.93685573507031 -84.204501797416356 223.98704666250376
      vertex 495.55044035236682 -109.05919373097601 262.73495769388325
      vertex 495.29129592143295 -58.24104148955292 262.13055593025069
    endloop
  endfacet
  facet normal -0.91908200640281279 2.8499526326118149e-09 0.39406632120314505
    outer loop
      vertex 478.93685573507031 -84.204501797416356 223.98704666250376
      vertex 479.04171804786625 -134.02642845645158 224.23161769444684
      vertex 495.55044035236682 -109.05919373097601 262.73495769388325
    endloop
  endfacet
  facet normal -0.91908196213883431 1.892422607427498e-08 0.39406642444013207
    outer loop
      vertex 456.9339726585585 -17.274159838881928 172.6696704528992
      vertex 459.90356734354197 -64.997968727952696 179.59566476171514
      vertex 477.89971246873421 -33.333333333333201 221.56811089656972
    endloop
  endfacet
  facet normal -0.91908203391455467 1.6411798801655457e-07 0.3940662570373899
    outer loop
      vertex 448.74491366165302 -110.29061698473922 153.57027662764986
      vertex 438.9255778807393 -160.90324569078678 130.66862840580512
      vertex 460.52546050697873 -153.6575788980679 181.04610303797574
    endloop
  endfacet
  facet normal -0.91908201400840972 9.8381921193954231e-08 0.39406630346457661
    outer loop
      vertex 457.23265301547445 -201.86102837917875 173.3662845286751
      vertex 438.9255778807393 -160.90324569078678 130.66862840580512
      vertex 436.88413606985864 -218.47938126970291 125.90738196052769
    endloop
  endfacet
  facet normal -0.91908192699911839 -2.3636515923867696e-08 0.39406650639655583
    outer loop
      vertex 448.74491366165302 -110.29061698473922 153.57027662764986
      vertex 439.07839472189011 -59.205802626748323 131.025042503836
      vertex 432.0842787222698 -111.30389310763286 114.71265173308888
    endloop
  endfacet
  facet normal -0.91908203327042315 2.9603776019175522e-08 0.39406625853973359
    outer loop
      vertex 439.07839472189011 -59.205802626748323 131.025042503836
      vertex 418.6804556916498 -29.696421203663483 83.450859873992272
      vertex 418.0442369856039 -83.505764949695219 81.967008931857833
    endloop
  endfacet
  facet normal -0.91908195248461333 3.065645751428648e-07 0.39406644695657211
    outer loop
      vertex 448.74491366165302 -110.29061698473922 153.57027662764986
      vertex 460.52546050697873 -153.6575788980679 181.04610303797574
      vertex 465.42067510887296 -109.37010555610209 192.46318726810179
    endloop
  endfacet
  facet normal -0.91908203558495583 -4.113887631237342e-07 0.39406625314132721
    outer loop
      vertex 465.42067510887296 -109.37010555610209 192.46318726810179
      vertex 478.93685573507031 -84.204501797416356 223.98704666250376
      vertex 459.90356734354197 -64.997968727952696 179.59566476171514
    endloop
  endfacet
  facet normal -0.91908204147328965 7.5328047416470493e-08 0.39406623940815383
    outer loop
      vertex 439.07839472189011 -59.205802626748323 131.025042503836
      vertex 418.0442369856039 -83.505764949695219 81.967008931857833
      vertex 432.0842787222698 -111.30389310763286 114.71265173308888
    endloop
  endfacet
  facet normal -0.91908215477196054 8.3898718610692678e-10 0.39406597516117792
    outer loop
      vertex 465.42067510887296 -109.37010555610209 192.46318726810179
      vertex 479.04171804786625 -134.02642845645158 224.23161769444684
      vertex 478.93685573507031 -84.204501797416356 223.98704666250376
    endloop
  endfacet
  facet normal -0.9190820494353491 3.7557300382229223e-07 0.39406622083804344
    outer loop
      vertex 465.42067510887296 -109.37010555610209 192.46318726810179
      vertex 460.52546050697873 -153.6575788980679 181.04610303797574
      vertex 479.04171804786625 -134.02642845645158 224.23161769444684
    endloop
  endfacet
  facet normal -0.91908194034462221 -1.4500428912022199e-08 0.39406647527081506
    outer loop
      vertex 436.48354349092267 -1.7697129231058852 124.97308151547075
      vertex 453.50629473923192 30.322278335003375 164.6752756741989
      vertex 436.20752796417537 42.017687740666759 124.32933162332952
    endloop
  endfacet
  facet normal -0.91908204425245232 -1.3979011093779335e-08 0.39406623292631043
    outer loop
      vertex 456.9339726585585 -17.274159838881928 172.6696704528992
      vertex 439.07839472189011 -59.205802626748323 131.025042503836
      vertex 459.90356734354197 -64.997968727952696 179.59566476171514
    endloop
  endfacet
  facet normal -0.91908195596830522 7.0800691190160806e-08 0.39406643883166359
    outer loop
      vertex 456.9339726585585 -17.274159838881928 172.6696704528992
      vertex 477.89971246873421 -33.333333333333201 221.56811089656972
      vertex 475.50717836695594 23.399008000415506 215.98798855681483
    endloop
  endfacet
  facet normal -0.91908197068519393 1.1407758106013047e-07 0.39406640450742225
    outer loop
      vertex 456.9339726585585 -17.274159838881928 172.6696704528992
      vertex 475.50717836695594 23.399008000415506 215.98798855681483
      vertex 453.50629473923192 30.322278335003375 164.6752756741989
    endloop
  endfacet
  facet normal -0.91908206602788178 -1.9602212687621195e-08 0.39406618213939637
    outer loop
      vertex 436.48354349092267 -1.7697129231058852 124.97308151547075
      vertex 436.20752796417537 42.017687740666759 124.32933162332952
      vertex 416.74962115067586 28.927786604319067 78.947580379843984
    endloop
  endfacet
  facet normal -0.91908196551193122 -2.5518989394542859e-09 0.39406641657305064
    outer loop
      vertex 436.88413606985864 -218.47938126970291 125.90738196052769
      vertex 436.92876580436365 -261.54443721583505 126.01147170907358
      vertex 454.26368721385404 -250.64049910106559 166.44174690838526
    endloop
  endfacet
  facet normal -0.91908207442263923 9.4059320196371915e-08 0.39406616256026056
    outer loop
      vertex 436.88413606985864 -218.47938126970291 125.90738196052769
      vertex 418.77849542236669 -189.96952988782141 83.679517638073136
      vertex 416.81097370818674 -247.88690826562589 79.090672762070028
    endloop
  endfacet
  facet normal -0.91908202834125863 5.7126932862644688e-08 0.39406627003603667
    outer loop
      vertex 457.23265301547445 -201.86102837917875 173.3662845286751
      vertex 460.52546050697873 -153.6575788980679 181.04610303797574
      vertex 438.9255778807393 -160.90324569078678 130.66862840580512
    endloop
  endfacet
  facet normal -0.9190819275169233 3.1190054313747278e-08 0.39406650518887787
    outer loop
      vertex 448.74491366165302 -110.29061698473922 153.57027662764986
      vertex 432.0842787222698 -111.30389310763286 114.71265173308888
      vertex 438.9255778807393 -160.90324569078678 130.66862840580512
    endloop
  endfacet
  facet normal -0.91908205120654285 -1.7498809411667895e-07 0.39406621670722203
    outer loop
      vertex 448.74491366165302 -110.29061698473922 153.57027662764986
      vertex 459.90356734354197 -64.997968727952696 179.59566476171514
      vertex 439.07839472189011 -59.205802626748323 131.025042503836
    endloop
  endfacet
  facet normal -0.91908194693872414 -3.4041111593346179e-07 0.39406645989123257
    outer loop
      vertex 448.74491366165302 -110.29061698473922 153.57027662764986
      vertex 465.42067510887296 -109.37010555610209 192.46318726810179
      vertex 459.90356734354197 -64.997968727952696 179.59566476171514
    endloop
  endfacet
  facet normal -0.91908205231182383 -3.131165895007582e-09 0.39406621412940956
    outer loop
      vertex 436.88413606985864 -218.47938126970291 125.90738196052769
      vertex 416.81097370818674 -247.88690826562589 79.090672762070028
      vertex 436.92876580436365 -261.54443721583505 126.01147170907358
    endloop
  endfacet
  facet normal -0.91908199027787274 -8.8735275660053215e-08 0.39406635881137636
    outer loop
      vertex 457.23265301547445 -201.86102837917875 173.3662845286751
      vertex 436.88413606985864 -218.47938126970291 125.90738196052769
      vertex 454.26368721385404 -250.64049910106559 166.44174690838526
    endloop
  endfacet
  facet normal -0.91908207186415647 -1.4218889950459966e-07 0.39406616852740489
    outer loop
      vertex 436.48354349092267 -1.7697129231058852 124.97308151547075
      vertex 418.6804556916498 -29.696421203663483 83.450859873992272
      vertex 439.07839472189011 -59.205802626748323 131.025042503836
    endloop
  endfacet
  facet normal -0.91908208380188461 -9.3181813958049192e-08 0.39406614068500834
    outer loop
      vertex 436.48354349092267 -1.7697129231058852 124.97308151547075
      vertex 416.74962115067586 28.927786604319067 78.947580379843984
      vertex 418.6804556916498 -29.696421203663483 83.450859873992272
    endloop
  endfacet
endsolid OBJECT
