solid OBJECT
  facet normal -0.93294828621273396 3.2960771650614229e-08 -0.36001040992271555
    outer loop
      vertex 182.59036562243955 -248.99461963986789 183.75860282960278
      vertex 200.89506881451837 -250.25547111196809 136.32291473961845
      vertex 192.23946012454758 -293.31232246163506 158.75347133375357
    endloop
  endfacet
  facet normal -0.93294821554450469 8.1079144524349754e-10 -0.36001059305571037
    outer loop
      vertex 138.65150336046082 -293.82987127945881 297.62388136436164
      vertex 147.62727894448483 -337 274.36363844159501
      vertex 129.98181765993311 -337 320.090908514825
    endloop
  endfacet
  facet normal -0.93294821508599446 5.1743744872266968e-09 -0.36001059424391507
    outer loop
      vertex 103.17203231252338 80.612099800909675 389.56706777713384
      vertex 94.690906389098785 127 411.54545302111376
      vertex 112.33636773188883 127 365.8181829703571
    endloop
  endfacet
  facet normal -0.932948278549386 0 -0.36001042978188452
    outer loop
      vertex 75.502875398477869 -0.95563141073319002 461.27024103651388
      vertex 59.400001525878906 -27.666666666666643 503
      vertex 59.400001525878906 23.888888888888943 503
    endloop
  endfacet
  facet normal -0.93294825772754908 -0 -0.36001048374058608
    outer loop
      vertex 237.2476782539589 -156.98775473476385 42.117038091375008
      vertex 253.5 -130.77777777777774 0
      vertex 253.5 -182.33333333333331 0
    endloop
  endfacet
  facet normal -0.93294827254423651 3.0030764353667454e-08 -0.36001044534391474
    outer loop
      vertex 75.502875398477869 -0.95563141073319002 461.27024103651388
      vertex 59.400001525878906 23.888888888888943 503
      vertex 74.196162395716172 49.981595367584589 464.65652380716205
    endloop
  endfacet
  facet normal -0.93294825246646096 -1.502517919386691e-09 -0.36001049737441926
    outer loop
      vertex 205.88311116693254 -45.91809934914528 123.39666583203145
      vertex 222.18681308415685 -22.697587790022794 81.146480467357293
      vertex 221.3889908776369 -76.185904085624031 83.213994940261017
    endloop
  endfacet
  facet normal -0.93294828636758631 -2.7731116854625313e-08 -0.36001040952142394
    outer loop
      vertex 192.23946012454758 -293.31232246163506 158.75347133375357
      vertex 200.56363169602383 -337 137.18181622007467
      vertex 182.91817940717181 -337 182.90908976460767
    endloop
  endfacet
  facet normal -0.93294833583885295 6.9458708850739907e-08 -0.36001028131917295
    outer loop
      vertex 174.01594911442004 -292.98358895483568 205.97877534071722
      vertex 182.91817940717181 -337 182.90908976460767
      vertex 165.27273340199005 -337 228.63636573391184
    endloop
  endfacet
  facet normal -0.93294823154300555 0 -0.36001055159644746
    outer loop
      vertex 71.575308792613086 92.875891982771748 471.4483376039347
      vertex 59.400001525878906 75.4444444444445 503
      vertex 59.400001525878906 127 503
    endloop
  endfacet
  facet normal -0.93294830495420222 -1.9926986408193471e-08 -0.36001036135517056
    outer loop
      vertex 121.05873043544723 81.646380216282864 343.21463188063865
      vertex 112.33636773188883 127 365.8181829703571
      vertex 129.98181765993314 127 320.09090851482495
    endloop
  endfacet
  facet normal -0.93294829710174487 -3.3390413082515792e-09 -0.36001038170440902
    outer loop
      vertex 92.604296921873683 -134.25583313415643 416.95279010565628
      vertex 75.766438528681434 -157.8901441037556 460.5872300885091
      vertex 75.942566950688672 -106.13578840312775 460.13080190603597
    endloop
  endfacet
  facet normal -0.9329483224631695 9.4061728347620672e-08 -0.36001031598156852
    outer loop
      vertex 86.30566632550358 -294.0880817269757 433.27535517619623
      vertex 73.845307879372783 -258.65244004482315 465.56574610860599
      vertex 92.529234530153417 -241.1445443220224 417.14731028817192
    endloop
  endfacet
  facet normal -0.93294825943941084 1.1197206422400214e-08 -0.36001047930438551
    outer loop
      vertex 234.40761215212328 88.964022191558229 49.476920209274354
      vertex 211.7567703677114 83.339510058944654 108.17538753016241
      vertex 218.20908874372475 127 91.454544511908267
    endloop
  endfacet
  facet normal -0.93294825772754919 -0 -0.3600104837405857
    outer loop
      vertex 240.31818898732479 44.061833125801456 34.159970815824195
      vertex 253.5 75.444444444444457 0
      vertex 253.5 23.888888888888893 0
    endloop
  endfacet
  facet normal -0.93294826568040401 0 -0.36001046313117918
    outer loop
      vertex 74.196162395716172 49.981595367584589 464.65652380716205
      vertex 59.400001525878906 23.888888888888943 503
      vertex 59.400001525878906 75.4444444444445 503
    endloop
  endfacet
  facet normal -0.93294833369427577 -5.967163431179823e-08 -0.3600102868767372
    outer loop
      vertex 193.02501716785864 -8.5712220659889908 156.71774112662263
      vertex 175.34208180416675 -12.196779455271551 202.5421686501931
      vertex 183.44559680463533 36.689165876312529 181.54231389758021
    endloop
  endfacet
  facet normal -0.93294829048137817 1.3729740605184872e-08 -0.36001039886074665
    outer loop
      vertex 157.04635631247214 -10.066991356518599 249.95459313528926
      vertex 165.79425966611993 35.994729817580946 227.28485672630467
      vertex 175.34208180416675 -12.196779455271551 202.5421686501931
    endloop
  endfacet
  facet normal -0.9329483358388535 -6.5036051271024974e-08 -0.36001028131917256
    outer loop
      vertex 174.38682564798873 81.948807222949142 205.01766731097396
      vertex 165.27273340199008 127 228.63636573391182
      vertex 182.91817940717181 127 182.90908976460764
    endloop
  endfacet
  facet normal -0.93294822728814908 0 -0.36001056262268233
    outer loop
      vertex 71.312315797175216 -302.35479518813622 472.1298710756077
      vertex 59.400001525878906 -337 503
      vertex 59.400001525878906 -285.44444444444446 503
    endloop
  endfacet
  facet normal -0.93294826182856827 0 -0.36001047311300982
    outer loop
      vertex 73.845307879372783 -258.65244004482315 465.56574610860599
      vertex 59.400001525878906 -285.44444444444446 503
      vertex 59.400001525878906 -233.88888888888886 503
    endloop
  endfacet
  facet normal -0.93294828566583166 1.3279387211657161e-08 -0.36001041133998546
    outer loop
      vertex 156.63796147201549 81.708181236704718 251.01292711654898
      vertex 165.27273340199008 127 228.63636573391182
      vertex 174.38682564798873 81.948807222949142 205.01766731097396
    endloop
  endfacet
  facet normal -0.93294823944140071 3.5020129484833344e-08 -0.36001053112817349
    outer loop
      vertex 138.86632676161275 81.721706042714004 297.06717798410659
      vertex 147.62727894448483 127 274.36363844159501
      vertex 156.63796147201549 81.708181236704718 251.01292711654898
    endloop
  endfacet
  facet normal -0.93294827970065508 3.1600393228312676e-08 -0.36001042679842882
    outer loop
      vertex 122.71589232443168 -89.499181293790514 338.92018084874468
      vertex 125.46914828252245 -132.36684470922421 331.78525759900896
      vertex 108.60766792936545 -109.80494155928666 375.48090814320005
    endloop
  endfacet
  facet normal -0.93294825025628803 -4.8782188473423456e-08 -0.36001050310196236
    outer loop
      vertex 112.06563744537408 36.299516436499005 366.51976467345565
      vertex 103.17203231252338 80.612099800909675 389.56706777713384
      vertex 121.05873043544723 81.646380216282864 343.21463188063865
    endloop
  endfacet
  facet normal -0.93294825107174917 6.0026868560811445e-08 -0.36001050098873649
    outer loop
      vertex 121.05873043544723 81.646380216282864 343.21463188063865
      vertex 103.17203231252338 80.612099800909675 389.56706777713384
      vertex 112.33636773188883 127 365.8181829703571
    endloop
  endfacet
  facet normal -0.93294828242248151 0 -0.36001041974495929
    outer loop
      vertex 75.942566950688672 -106.13578840312775 460.13080190603597
      vertex 59.400001525878906 -130.77777777777774 503
      vertex 59.400001525878906 -79.222222222222172 503
    endloop
  endfacet
  facet normal -0.93294821875408129 5.1789029662190416e-17 -0.36001058473826408
    outer loop
      vertex 138.26975500116669 -97.357096516482457 298.61316186586328
      vertex 129.91629592110229 -50.143098597328674 320.26070529808521
      vertex 147.78816673723327 -54.55724300589884 273.94670579211379
    endloop
  endfacet
  facet normal -0.9329482577275493 -0 -0.3600104837405857
    outer loop
      vertex 237.4261004232994 -208.11111111111109 41.654666411815469
      vertex 253.5 -182.33333333333331 0
      vertex 253.5 -233.88888888888891 0
    endloop
  endfacet
  facet normal -0.9329482835474292 -1.0682708513844426e-08 -0.36001041682971568
    outer loop
      vertex 174.01594911442004 -292.98358895483568 205.97877534071722
      vertex 165.27273340199005 -337 228.63636573391184
      vertex 156.26879244390295 -293.26086203751981 251.96960944594193
    endloop
  endfacet
  facet normal -0.93294825772754908 3.2561465866116196e-16 -0.36001048374058586
    outer loop
      vertex 234.40764443885843 -298.96433838700523 49.476836539896155
      vertex 240.31846210761879 -254.06188756788248 34.15926303892897
      vertex 253.5 -285.44444444444446 0
    endloop
  endfacet
  facet normal -0.93294825772754908 -3.7911189703622169e-16 -0.36001048374058586
    outer loop
      vertex 237.4261004232994 -208.11111111111109 41.654666411815469
      vertex 237.2476782539589 -156.98775473476385 42.117038091375008
      vertex 253.5 -182.33333333333331 0
    endloop
  endfacet
  facet normal -0.93294833959263868 -5.955137012878326e-08 -0.36001027159142973
    outer loop
      vertex 192.31260015963542 82.510614164532285 158.5639327381204
      vertex 174.38682564798873 81.948807222949142 205.01766731097396
      vertex 182.91817940717181 127 182.90908976460764
    endloop
  endfacet
  facet normal -0.93294824890120776 -8.1889051335661295e-10 -0.36001050661358519
    outer loop
      vertex 211.7567703677114 83.339510058944654 108.17538753016241
      vertex 200.56363169602383 127 137.18181622007467
      vertex 218.20908874372475 127 91.454544511908267
    endloop
  endfacet
  facet normal -0.932948256419179 -1.5689665776067176e-08 -0.3600104871311578
    outer loop
      vertex 192.31260015963542 82.510614164532285 158.5639327381204
      vertex 200.56363169602383 127 137.18181622007467
      vertex 211.7567703677114 83.339510058944654 108.17538753016241
    endloop
  endfacet
  facet normal -0.93294834075030464 6.1794552052852495e-08 -0.3600102685913964
    outer loop
      vertex 174.01594911442004 -292.98358895483568 205.97877534071722
      vertex 192.23946012454758 -293.31232246163506 158.75347133375357
      vertex 182.91817940717181 -337 182.90908976460767
    endloop
  endfacet
  facet normal -0.93294821508599446 -5.2247942218338188e-09 -0.36001059424391513
    outer loop
      vertex 103.05811477278517 -291.67681185868656 389.86227900227289
      vertex 112.3363677318888 -337 365.81818297035716
      vertex 94.690906389098757 -337 411.54545302111381
    endloop
  endfacet
  facet normal -0.93294826758129501 8.1441421904303769e-08 -0.36001045820511102
    outer loop
      vertex 121.01818530284447 -294.0180159535235 343.31970253650007
      vertex 138.65150336046082 -293.82987127945881 297.62388136436164
      vertex 129.98181765993311 -337 320.090908514825
    endloop
  endfacet
  facet normal -0.93294829957616554 1.0262477336861118e-08 -0.36001037529207564
    outer loop
      vertex 92.604296921873683 -134.25583313415643 416.95279010565628
      vertex 91.7669860518875 -185.13431607508306 419.12263654299079
      vertex 75.766438528681434 -157.8901441037556 460.5872300885091
    endloop
  endfacet
  facet normal -0.93294827957020821 0 -0.36001042713647702
    outer loop
      vertex 75.616479409884818 -209.77236333841566 460.9758418029478
      vertex 59.400001525878906 -233.88888888888886 503
      vertex 59.400001525878906 -182.33333333333331 503
    endloop
  endfacet
  facet normal -0.93294828636758631 2.7164727160182455e-08 -0.36001040952142416
    outer loop
      vertex 192.31260015963542 82.510614164532285 158.5639327381204
      vertex 182.91817940717181 127 182.90908976460764
      vertex 200.56363169602383 127 137.18181622007467
    endloop
  endfacet
  facet normal -0.93294825772754908 5.7048855370445316e-17 -0.36001048374058603
    outer loop
      vertex 237.38324341119608 -104.88709046409105 41.765728107457647
      vertex 253.5 -130.77777777777774 0
      vertex 237.2476782539589 -156.98775473476385 42.117038091375008
    endloop
  endfacet
  facet normal -0.93294824704591206 8.3546691753381998e-08 -0.36001051142147639
    outer loop
      vertex 71.575308792613086 92.875891982771748 471.4483376039347
      vertex 74.196162395716172 49.981595367584589 464.65652380716205
      vertex 59.400001525878906 75.4444444444445 503
    endloop
  endfacet
  facet normal -0.93294829128813461 -1.6447157465878441e-07 -0.36001039677004198
    outer loop
      vertex 71.575308792613086 92.875891982771748 471.4483376039347
      vertex 59.400001525878906 127 503
      vertex 77.045453189737714 127 457.27272621429375
    endloop
  endfacet
  facet normal -0.9329482577275493 -0 -0.36001048374058564
    outer loop
      vertex 240.31846210761879 -254.06188756788248 34.15926303892897
      vertex 253.5 -233.88888888888891 0
      vertex 253.5 -285.44444444444446 0
    endloop
  endfacet
  facet normal -0.93294825659471337 1.6038484545065688e-08 -0.36001048667626995
    outer loop
      vertex 211.7576503170641 -293.34106366623536 108.17310718778447
      vertex 200.56363169602383 -337 137.18181622007467
      vertex 192.23946012454758 -293.31232246163506 158.75347133375357
    endloop
  endfacet
  facet normal -0.93294825167912809 -3.3968946446388878e-09 -0.36001049941475033
    outer loop
      vertex 221.62776384126698 -248.19103378828572 82.595227307561714
      vertex 211.7576503170641 -293.34106366623536 108.17310718778447
      vertex 200.89506881451837 -250.25547111196809 136.32291473961845
    endloop
  endfacet
  facet normal -0.93294826271385889 -4.3776226803401996e-10 -0.36001047081882531
    outer loop
      vertex 234.40764443885843 -298.96433838700523 49.476836539896155
      vertex 235.854544036991 -337 45.727272126732416
      vertex 218.20908874372472 -337 91.45454451190831
    endloop
  endfacet
  facet normal -0.93294829128813372 1.6978627696417438e-07 -0.36001039677004137
    outer loop
      vertex 71.312315797175216 -302.35479518813622 472.1298710756077
      vertex 77.0454531897377 -337 457.27272621429375
      vertex 59.400001525878906 -337 503
    endloop
  endfacet
  facet normal -0.93294824226315598 -8.1391712531300456e-08 -0.36001052381573656
    outer loop
      vertex 71.312315797175216 -302.35479518813622 472.1298710756077
      vertex 59.400001525878906 -285.44444444444446 503
      vertex 73.845307879372783 -258.65244004482315 465.56574610860599
    endloop
  endfacet
  facet normal -0.93294821875408129 7.7683544493285628e-17 -0.36001058473826419
    outer loop
      vertex 86.663172370106722 86.562393196116773 432.34889733955009
      vertex 94.690906389098785 127 411.54545302111376
      vertex 103.17203231252338 80.612099800909675 389.56706777713384
    endloop
  endfacet
  facet normal -0.93294836237214818 2.9178900301540328e-08 -0.36001021255948573
    outer loop
      vertex 86.663172370106722 86.562393196116773 432.34889733955009
      vertex 74.196162395716172 49.981595367584589 464.65652380716205
      vertex 71.575308792613086 92.875891982771748 471.4483376039347
    endloop
  endfacet
  facet normal -0.93294826929379893 1.195631697428228e-08 -0.36001045376725532
    outer loop
      vertex 156.26879244390295 -293.26086203751981 251.96960944594193
      vertex 165.27273340199005 -337 228.63636573391184
      vertex 147.62727894448483 -337 274.36363844159501
    endloop
  endfacet
  facet normal -0.93294823817087946 -3.5486407115707889e-08 -0.36001053442066194
    outer loop
      vertex 156.26879244390295 -293.26086203751981 251.96960944594193
      vertex 147.62727894448483 -337 274.36363844159501
      vertex 138.65150336046082 -293.82987127945881 297.62388136436164
    endloop
  endfacet
  facet normal -0.93294821875408129 5.1789029662190416e-17 -0.36001058473826397
    outer loop
      vertex 86.30566632550358 -294.0880817269757 433.27535517619623
      vertex 103.05811477278517 -291.67681185868656 389.86227900227289
      vertex 94.690906389098757 -337 411.54545302111381
    endloop
  endfacet
  facet normal -0.93294830705972676 -3.2768318103315303e-08 -0.36001035589881081
    outer loop
      vertex 92.529234530153417 -241.1445443220224 417.14731028817192
      vertex 73.845307879372783 -258.65244004482315 465.56574610860599
      vertex 75.616479409884818 -209.77236333841566 460.9758418029478
    endloop
  endfacet
  facet normal -0.93294824890120776 8.187593718281417e-10 -0.36001050661358491
    outer loop
      vertex 211.7576503170641 -293.34106366623536 108.17310718778447
      vertex 218.20908874372472 -337 91.45454451190831
      vertex 200.56363169602383 -337 137.18181622007467
    endloop
  endfacet
  facet normal -0.93294825943967341 -1.1196425682264936e-08 -0.36001047930370517
    outer loop
      vertex 234.40764443885843 -298.96433838700523 49.476836539896155
      vertex 218.20908874372472 -337 91.45454451190831
      vertex 211.7576503170641 -293.34106366623536 108.17310718778447
    endloop
  endfacet
  facet normal -0.93294827132875113 -4.2757822435391347e-08 -0.36001044849378072
    outer loop
      vertex 75.616479409884818 -209.77236333841566 460.9758418029478
      vertex 73.845307879372783 -258.65244004482315 465.56574610860599
      vertex 59.400001525878906 -233.88888888888886 503
    endloop
  endfacet
  facet normal -0.93294826666516717 -7.8049923837510496e-08 -0.3600104605792086
    outer loop
      vertex 138.86632676161275 81.721706042714004 297.06717798410659
      vertex 121.05873043544723 81.646380216282864 343.21463188063865
      vertex 129.98181765993314 127 320.09090851482495
    endloop
  endfacet
  facet normal -0.93294821554450469 -6.5554871391301099e-10 -0.36001059305571026
    outer loop
      vertex 138.86632676161275 81.721706042714004 297.06717798410659
      vertex 129.98181765993314 127 320.09090851482495
      vertex 147.62727894448483 127 274.36363844159501
    endloop
  endfacet
  facet normal -0.9329482692937987 -1.0803222274379064e-08 -0.3600104537672556
    outer loop
      vertex 156.63796147201549 81.708181236704718 251.01292711654898
      vertex 147.62727894448483 127 274.36363844159501
      vertex 165.27273340199008 127 228.63636573391182
    endloop
  endfacet
  facet normal -0.93294826271385922 4.3779058317757368e-10 -0.36001047081882492
    outer loop
      vertex 234.40761215212328 88.964022191558229 49.476920209274354
      vertex 218.20908874372475 127 91.454544511908267
      vertex 235.85454403699097 127 45.727272126732458
    endloop
  endfacet
  facet normal -0.9329482577275493 4.0701818584305387e-17 -0.3600104837405857
    outer loop
      vertex 234.40761215212328 88.964022191558229 49.476920209274354
      vertex 253.5 75.444444444444457 0
      vertex 240.31818898732479 44.061833125801456 34.159970815824195
    endloop
  endfacet
  facet normal -0.93294828357629822 3.5741986882152719e-09 -0.3600104167549027
    outer loop
      vertex 164.67715775356518 -248.52415052042642 230.17976821261283
      vertex 174.01594911442004 -292.98358895483568 205.97877534071722
      vertex 156.26879244390295 -293.26086203751981 251.96960944594193
    endloop
  endfacet
  facet normal -0.93294826157232413 1.8670671502684459e-09 -0.36001047377705286
    outer loop
      vertex 221.62785194285325 38.190878334534929 82.594998996914043
      vertex 240.31818898732479 44.061833125801456 34.159970815824195
      vertex 237.4261004232994 -1.8888888888889177 41.654666411815441
    endloop
  endfacet
  facet normal -0.93294826222775806 8.7052086239092693e-11 -0.36001047207853071
    outer loop
      vertex 221.3889908776369 -76.185904085624031 83.213994940261017
      vertex 237.51403638755917 -52.718684540673962 41.426784979598963
      vertex 237.38324341119608 -104.88709046409105 41.765728107457647
    endloop
  endfacet
  facet normal -0.93294826735859959 -7.9594693588119887e-08 -0.36001045878221466
    outer loop
      vertex 129.69615647034072 -251.6364730577684 320.83118493721804
      vertex 138.65150336046082 -293.82987127945881 297.62388136436164
      vertex 121.01818530284447 -294.0180159535235 343.31970253650007
    endloop
  endfacet
  facet normal -0.93294825772754908 -0 -0.36001048374058586
    outer loop
      vertex 237.4261004232994 -1.8888888888889177 41.654666411815441
      vertex 253.5 23.888888888888893 0
      vertex 253.5 -27.666666666666661 0
    endloop
  endfacet
  facet normal -0.93294825772754908 1.463809144513808e-16 -0.36001048374058575
    outer loop
      vertex 237.4261004232994 -1.8888888888889177 41.654666411815441
      vertex 240.31818898732479 44.061833125801456 34.159970815824195
      vertex 253.5 23.888888888888893 0
    endloop
  endfacet
  facet normal -0.93294827958343785 4.8097759076114722e-09 -0.36001042710219289
    outer loop
      vertex 75.730762581451458 -53.847021667694719 460.67968255907925
      vertex 59.400001525878906 -27.666666666666643 503
      vertex 75.502875398477869 -0.95563141073319002 461.27024103651388
    endloop
  endfacet
  facet normal -0.93294830126465567 -8.6638002881667594e-09 -0.36001037091644106
    outer loop
      vertex 92.529234530153417 -241.1445443220224 417.14731028817192
      vertex 75.616479409884818 -209.77236333841566 460.9758418029478
      vertex 91.7669860518875 -185.13431607508306 419.12263654299079
    endloop
  endfacet
  facet normal -0.93294827125807667 -1.4438624377636916e-08 -0.36001044867693194
    outer loop
      vertex 157.04635631247214 -10.066991356518599 249.95459313528926
      vertex 147.90061377867193 36.430200918916796 273.65530528484641
      vertex 165.79425966611993 35.994729817580946 227.28485672630467
    endloop
  endfacet
  facet normal -0.9329482577275493 -5.1789031825652493e-17 -0.3600104837405857
    outer loop
      vertex 237.4261004232994 -208.11111111111109 41.654666411815469
      vertex 253.5 -233.88888888888891 0
      vertex 240.31846210761879 -254.06188756788248 34.15926303892897
    endloop
  endfacet
  facet normal -0.93294821875408118 -1.4671139574029007e-16 -0.36001058473826442
    outer loop
      vertex 147.90061377867193 36.430200918916796 273.65530528484641
      vertex 129.96000187184532 36.643849645817681 320.14744365905779
      vertex 138.86632676161275 81.721706042714004 297.06717798410659
    endloop
  endfacet
  facet normal -0.93294833080859907 7.0434833974563523e-08 -0.36001029435481974
    outer loop
      vertex 172.95149838987788 -203.47922322918535 208.73724494729339
      vertex 182.59036562243955 -248.99461963986789 183.75860282960278
      vertex 164.67715775356518 -248.52415052042642 230.17976821261283
    endloop
  endfacet
  facet normal -0.93294830244048366 -2.7168582848510237e-09 -0.36001036786934298
    outer loop
      vertex 91.7669860518875 -185.13431607508306 419.12263654299079
      vertex 75.616479409884818 -209.77236333841566 460.9758418029478
      vertex 75.766438528681434 -157.8901441037556 460.5872300885091
    endloop
  endfacet
  facet normal -0.93294828027442667 -3.2111838912685384e-09 -0.36001042531153088
    outer loop
      vertex 75.766438528681434 -157.8901441037556 460.5872300885091
      vertex 75.616479409884818 -209.77236333841566 460.9758418029478
      vertex 59.400001525878906 -182.33333333333331 503
    endloop
  endfacet
  facet normal -0.93294825772754908 -0 -0.36001048374058603
    outer loop
      vertex 237.51403638755917 -52.718684540673962 41.426784979598963
      vertex 253.5 -27.666666666666661 0
      vertex 253.5 -79.2222222222222 0
    endloop
  endfacet
  facet normal -0.93294825772754908 1.3230479224209657e-16 -0.36001048374058597
    outer loop
      vertex 237.51403638755917 -52.718684540673962 41.426784979598963
      vertex 237.4261004232994 -1.8888888888889177 41.654666411815441
      vertex 253.5 -27.666666666666661 0
    endloop
  endfacet
  facet normal -0.93294825657733393 1.2935086956886648e-08 -0.36001048672130775
    outer loop
      vertex 200.51366605946777 38.779294281303251 137.31129988102316
      vertex 192.31260015963542 82.510614164532285 158.5639327381204
      vertex 211.7567703677114 83.339510058944654 108.17538753016241
    endloop
  endfacet
  facet normal -0.93294826210668969 2.4192303123167031e-10 -0.36001047239227274
    outer loop
      vertex 222.18681308415685 -22.697587790022794 81.146480467357293
      vertex 221.62785194285325 38.190878334534929 82.594998996914043
      vertex 237.4261004232994 -1.8888888888889177 41.654666411815441
    endloop
  endfacet
  facet normal -0.93294821875408107 -1.7948996997409136e-16 -0.36001058473826436
    outer loop
      vertex 138.00082306559446 -208.33693717880215 299.3100846256221
      vertex 147.15248220995517 -249.8585855474937 275.59404832190302
      vertex 129.69615647034072 -251.6364730577684 320.83118493721804
    endloop
  endfacet
  facet normal -0.93294826082433269 -7.7969938235942334e-09 -0.36001047571543371
    outer loop
      vertex 207.1897009541685 -209.40487949945037 120.01070725015435
      vertex 190.8367168639933 -205.16440405677218 162.38860751218255
      vertex 202.41813316184687 -157.97799129356059 132.37597374255353
    endloop
  endfacet
  facet normal -0.9329482187540814 2.347011650401453e-17 -0.36001058473826403
    outer loop
      vertex 86.30566632550358 -294.0880817269757 433.27535517619623
      vertex 92.529234530153417 -241.1445443220224 417.14731028817192
      vertex 103.05811477278517 -291.67681185868656 389.86227900227289
    endloop
  endfacet
  facet normal -0.93294836663295577 -2.5773850975788276e-08 -0.36001020151781715
    outer loop
      vertex 86.30566632550358 -294.0880817269757 433.27535517619623
      vertex 71.312315797175216 -302.35479518813622 472.1298710756077
      vertex 73.845307879372783 -258.65244004482315 465.56574610860599
    endloop
  endfacet
  facet normal -0.93294825772754908 -0 -0.36001048374058597
    outer loop
      vertex 234.40764443885843 -298.96433838700523 49.476836539896155
      vertex 253.5 -285.44444444444446 0
      vertex 253.5 -337 0
    endloop
  endfacet
  facet normal -0.93294825744097953 1.1098601035988781e-09 -0.36001048448321576
    outer loop
      vertex 234.40764443885843 -298.96433838700523 49.476836539896155
      vertex 253.5 -337 0
      vertex 235.854544036991 -337 45.727272126732416
    endloop
  endfacet
  facet normal -0.93294830495420233 2.1306824271811351e-08 -0.36001036135517067
    outer loop
      vertex 121.01818530284447 -294.0180159535235 343.31970253650007
      vertex 129.98181765993311 -337 320.090908514825
      vertex 112.3363677318888 -337 365.81818297035716
    endloop
  endfacet
  facet normal -0.93294825126384717 -6.2367137730423879e-08 -0.3600105004909242
    outer loop
      vertex 121.01818530284447 -294.0180159535235 343.31970253650007
      vertex 112.3363677318888 -337 365.81818297035716
      vertex 103.05811477278517 -291.67681185868656 389.86227900227289
    endloop
  endfacet
  facet normal -0.93294826674806819 7.316302689525712e-08 -0.36001046036437606
    outer loop
      vertex 129.96000187184532 36.643849645817681 320.14744365905779
      vertex 121.05873043544723 81.646380216282864 343.21463188063865
      vertex 138.86632676161275 81.721706042714004 297.06717798410659
    endloop
  endfacet
  facet normal -0.93294823844236829 2.9368191479770903e-08 -0.360010533717114
    outer loop
      vertex 147.15248220995517 -249.8585855474937 275.59404832190302
      vertex 156.26879244390295 -293.26086203751981 251.96960944594193
      vertex 138.65150336046082 -293.82987127945881 297.62388136436164
    endloop
  endfacet
  facet normal -0.93294825772754908 -0 -0.36001048374058597
    outer loop
      vertex 237.38324341119608 -104.88709046409105 41.765728107457647
      vertex 253.5 -79.2222222222222 0
      vertex 253.5 -130.77777777777774 0
    endloop
  endfacet
  facet normal -0.93294825772754908 -1.254265614527521e-17 -0.36001048374058603
    outer loop
      vertex 237.38324341119608 -104.88709046409105 41.765728107457647
      vertex 237.51403638755917 -52.718684540673962 41.426784979598963
      vertex 253.5 -79.2222222222222 0
    endloop
  endfacet
  facet normal -0.93294828058280277 0 -0.36001042451239074
    outer loop
      vertex 75.730762581451458 -53.847021667694719 460.67968255907925
      vertex 59.400001525878906 -79.222222222222172 503
      vertex 59.400001525878906 -27.666666666666643 503
    endloop
  endfacet
  facet normal -0.93294828148150266 4.4625323275274117e-09 -0.3600104221834573
    outer loop
      vertex 75.730762581451458 -53.847021667694719 460.67968255907925
      vertex 75.942566950688672 -106.13578840312775 460.13080190603597
      vertex 59.400001525878906 -79.222222222222172 503
    endloop
  endfacet
  facet normal -0.93294827116404422 1.5373145845430908e-08 -0.36001044892061257
    outer loop
      vertex 165.79425966611993 35.994729817580946 227.28485672630467
      vertex 147.90061377867193 36.430200918916796 273.65530528484641
      vertex 156.63796147201549 81.708181236704718 251.01292711654898
    endloop
  endfacet
  facet normal -0.93294826227332783 -1.2240771972421837e-10 -0.36001047196043867
    outer loop
      vertex 221.31512328389985 -185.42836338715557 83.405418941601027
      vertex 237.2476782539589 -156.98775473476385 42.117038091375008
      vertex 237.4261004232994 -208.11111111111109 41.654666411815469
    endloop
  endfacet
  facet normal -0.9329482577275493 -0 -0.3600104837405857
    outer loop
      vertex 234.40761215212328 88.964022191558229 49.476920209274354
      vertex 253.5 127 0
      vertex 253.5 75.444444444444457 0
    endloop
  endfacet
  facet normal -0.93294825744097942 -1.1098534835755681e-09 -0.36001048448321599
    outer loop
      vertex 234.40761215212328 88.964022191558229 49.476920209274354
      vertex 235.85454403699097 127 45.727272126732458
      vertex 253.5 127 0
    endloop
  endfacet
  facet normal -0.93294828089600979 0 -0.36001042370073116
    outer loop
      vertex 75.766438528681434 -157.8901441037556 460.5872300885091
      vertex 59.400001525878906 -182.33333333333331 503
      vertex 59.400001525878906 -130.77777777777774 503
    endloop
  endfacet
  facet normal -0.93294828169975152 -3.7434586728820233e-09 -0.36001042161787655
    outer loop
      vertex 75.766438528681434 -157.8901441037556 460.5872300885091
      vertex 59.400001525878906 -130.77777777777774 503
      vertex 75.942566950688672 -106.13578840312775 460.13080190603597
    endloop
  endfacet
  facet normal -0.9329482588016883 -8.6181145243757089e-09 -0.36001048095701066
    outer loop
      vertex 221.62785194285325 38.190878334534929 82.594998996914043
      vertex 211.7567703677114 83.339510058944654 108.17538753016241
      vertex 234.40761215212328 88.964022191558229 49.476920209274354
    endloop
  endfacet
  facet normal -0.93294826134666931 -3.675657497625172e-09 -0.36001047436182632
    outer loop
      vertex 221.62785194285325 38.190878334534929 82.594998996914043
      vertex 234.40761215212328 88.964022191558229 49.476920209274354
      vertex 240.31818898732479 44.061833125801456 34.159970815824195
    endloop
  endfacet
  facet normal -0.9329482566002496 -1.2969600697936588e-08 -0.36001048666192309
    outer loop
      vertex 200.89506881451837 -250.25547111196809 136.32291473961845
      vertex 211.7576503170641 -293.34106366623536 108.17310718778447
      vertex 192.23946012454758 -293.31232246163506 158.75347133375357
    endloop
  endfacet
  facet normal -0.93294826157229183 -1.867225350695408e-09 -0.36001047377713702
    outer loop
      vertex 221.62776384126698 -248.19103378828572 82.595227307561714
      vertex 237.4261004232994 -208.11111111111109 41.654666411815469
      vertex 240.31846210761879 -254.06188756788248 34.15926303892897
    endloop
  endfacet
  facet normal -0.93294821875408129 6.4736287077738025e-17 -0.36001058473826414
    outer loop
      vertex 109.76204601927157 -54.215994825893517 372.4893989254096
      vertex 108.60766792936545 -109.80494155928666 375.48090814320005
      vertex 92.443562557984876 -80.904653755493428 417.36932463224991
    endloop
  endfacet
  facet normal -0.93294821875408118 3.8446363272262658e-17 -0.36001058473826442
    outer loop
      vertex 147.15248220995517 -249.8585855474937 275.59404832190302
      vertex 138.65150336046082 -293.82987127945881 297.62388136436164
      vertex 129.69615647034072 -251.6364730577684 320.83118493721804
    endloop
  endfacet
  facet normal -0.93294823944799643 -3.1848523396486944e-08 -0.36001053111108128
    outer loop
      vertex 147.90061377867193 36.430200918916796 273.65530528484641
      vertex 138.86632676161275 81.721706042714004 297.06717798410659
      vertex 156.63796147201549 81.708181236704718 251.01292711654898
    endloop
  endfacet
  facet normal -0.93294829676803948 -1.813453921303049e-09 -0.36001038256918894
    outer loop
      vertex 92.443562557984876 -80.904653755493428 417.36932463224991
      vertex 92.604296921873683 -134.25583313415643 416.95279010565628
      vertex 75.942566950688672 -106.13578840312775 460.13080190603597
    endloop
  endfacet
  facet normal -0.93294830680126661 2.3250213978343341e-08 -0.36001035656859792
    outer loop
      vertex 92.241251819536927 28.96614140445746 417.89360211483296
      vertex 75.502875398477869 -0.95563141073319002 461.27024103651388
      vertex 74.196162395716172 49.981595367584589 464.65652380716205
    endloop
  endfacet
  facet normal -0.93294829839158222 2.4871632636712745e-08 -0.3600103783618615
    outer loop
      vertex 112.06563744537408 36.299516436499005 366.51976467345565
      vertex 121.05873043544723 81.646380216282864 343.21463188063865
      vertex 129.96000187184532 36.643849645817681 320.14744365905779
    endloop
  endfacet
  facet normal -0.93294825167841433 3.3981496329311969e-09 -0.36001049941659996
    outer loop
      vertex 200.51366605946777 38.779294281303251 137.31129988102316
      vertex 211.7567703677114 83.339510058944654 108.17538753016241
      vertex 221.62785194285325 38.190878334534929 82.594998996914043
    endloop
  endfacet
  facet normal -0.9329482572545017 2.3659074710220609e-09 -0.3600104849664636
    outer loop
      vertex 207.75665981746084 -1.1833011030935836 118.54146323226178
      vertex 205.88311116693254 -45.91809934914528 123.39666583203145
      vertex 193.02501716785864 -8.5712220659889908 156.71774112662263
    endloop
  endfacet
  facet normal -0.93294826236228745 2.6210368285059261e-10 -0.36001047172990447
    outer loop
      vertex 220.72839204904517 -130.85052441380245 84.925902214507275
      vertex 237.2476782539589 -156.98775473476385 42.117038091375008
      vertex 221.31512328389985 -185.42836338715557 83.405418941601027
    endloop
  endfacet
  facet normal -0.93294833631025265 -5.6325883379263439e-08 -0.36001028009756697
    outer loop
      vertex 175.34208180416675 -12.196779455271551 202.5421686501931
      vertex 165.79425966611993 35.994729817580946 227.28485672630467
      vertex 183.44559680463533 36.689165876312529 181.54231389758021
    endloop
  endfacet
  facet normal -0.9329482622278874 1.2661464938740402e-10 -0.3600104720781952
    outer loop
      vertex 221.62776384126698 -248.19103378828572 82.595227307561714
      vertex 221.31512328389985 -185.42836338715557 83.405418941601027
      vertex 237.4261004232994 -208.11111111111109 41.654666411815469
    endloop
  endfacet
  facet normal -0.93294825232683209 5.0715009712615998e-10 -0.36001049773625998
    outer loop
      vertex 207.1897009541685 -209.40487949945037 120.01070725015435
      vertex 221.31512328389985 -185.42836338715557 83.405418941601027
      vertex 221.62776384126698 -248.19103378828572 82.595227307561714
    endloop
  endfacet
  facet normal -0.93294828563022802 -6.983144250275897e-09 -0.36001041143225082
    outer loop
      vertex 165.79425966611993 35.994729817580946 227.28485672630467
      vertex 156.63796147201549 81.708181236704718 251.01292711654898
      vertex 174.38682564798873 81.948807222949142 205.01766731097396
    endloop
  endfacet
  facet normal -0.9329482822380567 -2.4194179497857616e-08 -0.36001042022288565
    outer loop
      vertex 183.44559680463533 36.689165876312529 181.54231389758021
      vertex 192.31260015963542 82.510614164532285 158.5639327381204
      vertex 200.51366605946777 38.779294281303251 137.31129988102316
    endloop
  endfacet
  facet normal -0.93294821875408118 -1.7316956793294919e-16 -0.36001058473826464
    outer loop
      vertex 105.40856727821374 -209.60308100774597 383.77120676393889
      vertex 92.529234530153417 -241.1445443220224 417.14731028817192
      vertex 91.7669860518875 -185.13431607508306 419.12263654299079
    endloop
  endfacet
  facet normal -0.93294824005714128 3.2912419861588105e-08 -0.36001052953251439
    outer loop
      vertex 157.04635631247214 -10.066991356518599 249.95459313528926
      vertex 138.99269086092386 -8.0562885246179121 296.73971216403226
      vertex 147.90061377867193 36.430200918916796 273.65530528484641
    endloop
  endfacet
  facet normal -0.93294826239681361 9.3739640245063142e-11 -0.36001047164043187
    outer loop
      vertex 220.72839204904517 -130.85052441380245 84.925902214507275
      vertex 237.38324341119608 -104.88709046409105 41.765728107457647
      vertex 237.2476782539589 -156.98775473476385 42.117038091375008
    endloop
  endfacet
  facet normal -0.93294826231750039 -2.9880951699302896e-10 -0.36001047184596796
    outer loop
      vertex 220.72839204904517 -130.85052441380245 84.925902214507275
      vertex 221.3889908776369 -76.185904085624031 83.213994940261017
      vertex 237.38324341119608 -104.88709046409105 41.765728107457647
    endloop
  endfacet
  facet normal -0.93294821875408107 1.115993115638352e-16 -0.36001058473826425
    outer loop
      vertex 105.40856727821374 -209.60308100774597 383.77120676393889
      vertex 111.94246751066217 -250.55246829942598 366.83895298642449
      vertex 92.529234530153417 -241.1445443220224 417.14731028817192
    endloop
  endfacet
  facet normal -0.9329482685450049 2.0563420048870253e-08 -0.36001045570771567
    outer loop
      vertex 155.03768437137248 -203.07289419144143 255.15996196436581
      vertex 164.67715775356518 -248.52415052042642 230.17976821261283
      vertex 147.15248220995517 -249.8585855474937 275.59404832190302
    endloop
  endfacet
  facet normal -0.93294825205303711 2.8272000029684144e-08 -0.36001049844578414
    outer loop
      vertex 110.33196122924593 -164.86182326691841 371.01249407170093
      vertex 120.5387703695304 -209.96956998247322 344.56208203409864
      vertex 105.40856727821374 -209.60308100774597 383.77120676393889
    endloop
  endfacet
  facet normal -0.93294826815665333 -1.8786827146268325e-08 -0.36001045671410864
    outer loop
      vertex 147.15248220995517 -249.8585855474937 275.59404832190302
      vertex 164.67715775356518 -248.52415052042642 230.17976821261283
      vertex 156.26879244390295 -293.26086203751981 251.96960944594193
    endloop
  endfacet
  facet normal -0.93294827919914891 9.2584435243450325e-08 -0.3600104280980459
    outer loop
      vertex 86.663172370106722 86.562393196116773 432.34889733955009
      vertex 77.045453189737714 127 457.27272621429375
      vertex 94.690906389098785 127 411.54545302111376
    endloop
  endfacet
  facet normal -0.93294836774595935 -6.9906708520140756e-08 -0.36001019863351807
    outer loop
      vertex 86.663172370106722 86.562393196116773 432.34889733955009
      vertex 71.575308792613086 92.875891982771748 471.4483376039347
      vertex 77.045453189737714 127 457.27272621429375
    endloop
  endfacet
  facet normal -0.93294832195015887 -7.7112236337679364e-08 -0.36001031731101368
    outer loop
      vertex 92.241251819536927 28.96614140445746 417.89360211483296
      vertex 74.196162395716172 49.981595367584589 464.65652380716205
      vertex 86.663172370106722 86.562393196116773 432.34889733955009
    endloop
  endfacet
  facet normal -0.93294821875408118 -9.7104430616607019e-18 -0.36001058473826464
    outer loop
      vertex 105.34271227845579 -5.1130450173807276 383.9418664815272
      vertex 91.526558318145348 -27.833712999664385 419.74569218480451
      vertex 92.241251819536927 28.96614140445746 417.89360211483296
    endloop
  endfacet
  facet normal -0.93294826134663467 3.6757512514528111e-09 -0.36001047436191558
    outer loop
      vertex 221.62776384126698 -248.19103378828572 82.595227307561714
      vertex 240.31846210761879 -254.06188756788248 34.15926303892897
      vertex 234.40764443885843 -298.96433838700523 49.476836539896155
    endloop
  endfacet
  facet normal -0.9329482588021174 8.6173388882514322e-09 -0.36001048095589872
    outer loop
      vertex 221.62776384126698 -248.19103378828572 82.595227307561714
      vertex 234.40764443885843 -298.96433838700523 49.476836539896155
      vertex 211.7576503170641 -293.34106366623536 108.17310718778447
    endloop
  endfacet
  facet normal -0.93294834008710248 6.2178077944802034e-08 -0.36001027031005151
    outer loop
      vertex 183.44559680463533 36.689165876312529 181.54231389758021
      vertex 174.38682564798873 81.948807222949142 205.01766731097396
      vertex 192.31260015963542 82.510614164532285 158.5639327381204
    endloop
  endfacet
  facet normal -0.93294833693928991 6.7039209305584102e-08 -0.36001027846744726
    outer loop
      vertex 183.44559680463533 36.689165876312529 181.54231389758021
      vertex 165.79425966611993 35.994729817580946 227.28485672630467
      vertex 174.38682564798873 81.948807222949142 205.01766731097396
    endloop
  endfacet
  facet normal -0.93294821875408129 -6.4736287077738025e-17 -0.36001058473826419
    outer loop
      vertex 92.241251819536927 28.96614140445746 417.89360211483296
      vertex 86.663172370106722 86.562393196116773 432.34889733955009
      vertex 103.17203231252338 80.612099800909675 389.56706777713384
    endloop
  endfacet
  facet normal -0.93294821875408118 -2.1685336297101657e-16 -0.36001058473826442
    outer loop
      vertex 92.241251819536927 28.96614140445746 417.89360211483296
      vertex 103.17203231252338 80.612099800909675 389.56706777713384
      vertex 112.06563744537408 36.299516436499005 366.51976467345565
    endloop
  endfacet
  facet normal -0.93294826205365622 -5.7744968603653196e-11 -0.36001047252970647
    outer loop
      vertex 222.18681308415685 -22.697587790022794 81.146480467357293
      vertex 237.4261004232994 -1.8888888888889177 41.654666411815441
      vertex 237.51403638755917 -52.718684540673962 41.426784979598963
    endloop
  endfacet
  facet normal -0.93294826213787219 -3.8948815832198057e-10 -0.36001047231146471
    outer loop
      vertex 222.18681308415685 -22.697587790022794 81.146480467357293
      vertex 237.51403638755917 -52.718684540673962 41.426784979598963
      vertex 221.3889908776369 -76.185904085624031 83.213994940261017
    endloop
  endfacet
  facet normal -0.93294827919914891 -9.1131395817301456e-08 -0.36001042809804601
    outer loop
      vertex 86.30566632550358 -294.0880817269757 433.27535517619623
      vertex 94.690906389098757 -337 411.54545302111381
      vertex 77.0454531897377 -337 457.27272621429375
    endloop
  endfacet
  facet normal -0.93294837313960954 6.5279097457161939e-08 -0.36001018465614537
    outer loop
      vertex 86.30566632550358 -294.0880817269757 433.27535517619623
      vertex 77.0454531897377 -337 457.27272621429375
      vertex 71.312315797175216 -302.35479518813622 472.1298710756077
    endloop
  endfacet
  facet normal -0.93294834103302693 -5.9130975003382914e-08 -0.36001026785873663
    outer loop
      vertex 182.59036562243955 -248.99461963986789 183.75860282960278
      vertex 192.23946012454758 -293.31232246163506 158.75347133375357
      vertex 174.01594911442004 -292.98358895483568 205.97877534071722
    endloop
  endfacet
  facet normal -0.93294833129946864 -7.3769681813548013e-08 -0.36001029308275512
    outer loop
      vertex 182.59036562243955 -248.99461963986789 183.75860282960278
      vertex 174.01594911442004 -292.98358895483568 205.97877534071722
      vertex 164.67715775356518 -248.52415052042642 230.17976821261283
    endloop
  endfacet
  facet normal -0.93294830423380037 3.9903144023206534e-09 -0.3600103632220556
    outer loop
      vertex 91.526558318145348 -27.833712999664385 419.74569218480451
      vertex 75.730762581451458 -53.847021667694719 460.67968255907925
      vertex 75.502875398477869 -0.95563141073319002 461.27024103651388
    endloop
  endfacet
  facet normal -0.93294830331652356 8.2095569649615803e-09 -0.36001036559913124
    outer loop
      vertex 91.526558318145348 -27.833712999664385 419.74569218480451
      vertex 75.502875398477869 -0.95563141073319002 461.27024103651388
      vertex 92.241251819536927 28.96614140445746 417.89360211483296
    endloop
  endfacet
  facet normal -0.93294828808639463 -1.6753470886802152e-08 -0.36001040506722204
    outer loop
      vertex 125.46914828252245 -132.36684470922421 331.78525759900896
      vertex 110.33196122924593 -164.86182326691841 371.01249407170093
      vertex 108.60766792936545 -109.80494155928666 375.48090814320005
    endloop
  endfacet
  facet normal -0.93294821875408118 2.5894514831095205e-16 -0.36001058473826436
    outer loop
      vertex 111.94246751066217 -250.55246829942598 366.83895298642449
      vertex 103.05811477278517 -291.67681185868656 389.86227900227289
      vertex 92.529234530153417 -241.1445443220224 417.14731028817192
    endloop
  endfacet
  facet normal -0.93294829791005129 3.9490848282834311e-09 -0.36001037960972471
    outer loop
      vertex 92.443562557984876 -80.904653755493428 417.36932463224991
      vertex 75.942566950688672 -106.13578840312775 460.13080190603597
      vertex 75.730762581451458 -53.847021667694719 460.67968255907925
    endloop
  endfacet
  facet normal -0.93294830104057691 -1.0970153933015165e-08 -0.36001037149712894
    outer loop
      vertex 92.443562557984876 -80.904653755493428 417.36932463224991
      vertex 75.730762581451458 -53.847021667694719 460.67968255907925
      vertex 91.526558318145348 -27.833712999664385 419.74569218480451
    endloop
  endfacet
  facet normal -0.93294825227133538 -4.1263213430805889e-08 -0.36001049788007422
    outer loop
      vertex 105.40856727821374 -209.60308100774597 383.77120676393889
      vertex 120.5387703695304 -209.96956998247322 344.56208203409864
      vertex 111.94246751066217 -250.55246829942598 366.83895298642449
    endloop
  endfacet
  facet normal -0.93294821875408118 3.4876674663131356e-16 -0.36001058473826425
    outer loop
      vertex 108.60766792936545 -109.80494155928666 375.48090814320005
      vertex 92.604296921873683 -134.25583313415643 416.95279010565628
      vertex 92.443562557984876 -80.904653755493428 417.36932463224991
    endloop
  endfacet
  facet normal -0.93294824934855614 5.0996379734177051e-08 -0.36001050545430158
    outer loop
      vertex 111.94246751066217 -250.55246829942598 366.83895298642449
      vertex 121.01818530284447 -294.0180159535235 343.31970253650007
      vertex 103.05811477278517 -291.67681185868656 389.86227900227289
    endloop
  endfacet
  facet normal -0.93294829919198041 -2.9303245570056508e-08 -0.3600103762876708
    outer loop
      vertex 111.94246751066217 -250.55246829942598 366.83895298642449
      vertex 129.69615647034072 -251.6364730577684 320.83118493721804
      vertex 121.01818530284447 -294.0180159535235 343.31970253650007
    endloop
  endfacet
  facet normal -0.93294825141869975 1.1698245612694702e-09 -0.36001050008963714
    outer loop
      vertex 202.41813316184687 -157.97799129356059 132.37597374255353
      vertex 220.72839204904517 -130.85052441380245 84.925902214507275
      vertex 221.31512328389985 -185.42836338715557 83.405418941601027
    endloop
  endfacet
  facet normal -0.93294825127454428 4.1909049551793504e-10 -0.36001050046320859
    outer loop
      vertex 204.80496224535878 -99.021213488880932 126.19063194841048
      vertex 220.72839204904517 -130.85052441380245 84.925902214507275
      vertex 202.41813316184687 -157.97799129356059 132.37597374255353
    endloop
  endfacet
  facet normal -0.93294828298917487 2.3130705364318002e-08 -0.36001041827640196
    outer loop
      vertex 193.02501716785864 -8.5712220659889908 156.71774112662263
      vertex 183.44559680463533 36.689165876312529 181.54231389758021
      vertex 200.51366605946777 38.779294281303251 137.31129988102316
    endloop
  endfacet
  facet normal -0.93294825293651962 8.914447831170808e-10 -0.36001049615628666
    outer loop
      vertex 207.75665981746084 -1.1833011030935836 118.54146323226178
      vertex 221.62785194285325 38.190878334534929 82.594998996914043
      vertex 222.18681308415685 -22.697587790022794 81.146480467357293
    endloop
  endfacet
  facet normal -0.93294829826865222 -2.441910051654106e-08 -0.36001037868042829
    outer loop
      vertex 121.0556486061235 -9.5824170818415837 343.22261828510966
      vertex 112.06563744537408 36.299516436499005 366.51976467345565
      vertex 129.96000187184532 36.643849645817681 320.14744365905779
    endloop
  endfacet
  facet normal -0.93294821875408107 -2.6519173526387462e-16 -0.36001058473826436
    outer loop
      vertex 105.34271227845579 -5.1130450173807276 383.9418664815272
      vertex 92.241251819536927 28.96614140445746 417.89360211483296
      vertex 112.06563744537408 36.299516436499005 366.51976467345565
    endloop
  endfacet
  facet normal -0.93294825340599896 4.3403323147029106e-08 -0.36001049493965315
    outer loop
      vertex 121.0556486061235 -9.5824170818415837 343.22261828510966
      vertex 105.34271227845579 -5.1130450173807276 383.9418664815272
      vertex 112.06563744537408 36.299516436499005 366.51976467345565
    endloop
  endfacet
  facet normal -0.93294821875408118 0 -0.36001058473826431
    outer loop
      vertex 127.95354026991731 -175.03205915618736 325.3470818276914
      vertex 143.75840380318172 -154.69767903094817 284.38962139154785
      vertex 138.00082306559446 -208.33693717880215 299.3100846256221
    endloop
  endfacet
  facet normal -0.93294825190471198 -1.4116114176803676e-09 -0.36001049883016178
    outer loop
      vertex 207.1897009541685 -209.40487949945037 120.01070725015435
      vertex 202.41813316184687 -157.97799129356059 132.37597374255353
      vertex 221.31512328389985 -185.42836338715557 83.405418941601027
    endloop
  endfacet
  facet normal -0.93294828680805364 -3.372279978015997e-08 -0.36001040837997561
    outer loop
      vertex 190.8367168639933 -205.16440405677218 162.38860751218255
      vertex 200.89506881451837 -250.25547111196809 136.32291473961845
      vertex 182.59036562243955 -248.99461963986789 183.75860282960278
    endloop
  endfacet
  facet normal -0.93294821875408118 1.2789857379935055e-16 -0.36001058473826442
    outer loop
      vertex 138.99269086092386 -8.0562885246179121 296.73971216403226
      vertex 129.96000187184532 36.643849645817681 320.14744365905779
      vertex 147.90061377867193 36.430200918916796 273.65530528484641
    endloop
  endfacet
  facet normal -0.93294826557827537 -7.3004235831757689e-08 -0.36001046339583309
    outer loop
      vertex 121.0556486061235 -9.5824170818415837 343.22261828510966
      vertex 129.96000187184532 36.643849645817681 320.14744365905779
      vertex 138.99269086092386 -8.0562885246179121 296.73971216403226
    endloop
  endfacet
  facet normal -0.93294825171660567 -1.2872344877100653e-09 -0.36001049931762946
    outer loop
      vertex 204.80496224535878 -99.021213488880932 126.19063194841048
      vertex 221.3889908776369 -76.185904085624031 83.213994940261017
      vertex 220.72839204904517 -130.85052441380245 84.925902214507275
    endloop
  endfacet
  facet normal -0.93294825200423637 3.2448001711588397e-10 -0.36001049857224948
    outer loop
      vertex 205.88311116693254 -45.91809934914528 123.39666583203145
      vertex 221.3889908776369 -76.185904085624031 83.213994940261017
      vertex 204.80496224535878 -99.021213488880932 126.19063194841048
    endloop
  endfacet
  facet normal -0.93294825292212313 9.6594769250281652e-10 -0.36001049619359471
    outer loop
      vertex 207.75665981746084 -1.1833011030935836 118.54146323226178
      vertex 222.18681308415685 -22.697587790022794 81.146480467357293
      vertex 205.88311116693254 -45.91809934914528 123.39666583203145
    endloop
  endfacet
  facet normal -0.93294823347728562 -2.5037853111779356e-08 -0.36001054658386267
    outer loop
      vertex 155.03768437137248 -203.07289419144143 255.15996196436581
      vertex 147.15248220995517 -249.8585855474937 275.59404832190302
      vertex 138.00082306559446 -208.33693717880215 299.3100846256221
    endloop
  endfacet
  facet normal -0.9329482986863249 3.4593971697309332e-08 -0.36001037759805032
    outer loop
      vertex 120.5387703695304 -209.96956998247322 344.56208203409864
      vertex 129.69615647034072 -251.6364730577684 320.83118493721804
      vertex 111.94246751066217 -250.55246829942598 366.83895298642449
    endloop
  endfacet
  facet normal -0.93294827233121802 7.9284452279279967e-08 -0.36001044589593334
    outer loop
      vertex 120.5387703695304 -209.96956998247322 344.56208203409864
      vertex 138.00082306559446 -208.33693717880215 299.3100846256221
      vertex 129.69615647034072 -251.6364730577684 320.83118493721804
    endloop
  endfacet
  facet normal -0.93294821875408118 -1.2299894544770222e-16 -0.36001058473826453
    outer loop
      vertex 110.33196122924593 -164.86182326691841 371.01249407170093
      vertex 92.604296921873683 -134.25583313415643 416.95279010565628
      vertex 108.60766792936545 -109.80494155928666 375.48090814320005
    endloop
  endfacet
  facet normal -0.93294829811766011 1.9300622327515315e-08 -0.36001037907171646
    outer loop
      vertex 125.46914828252245 -132.36684470922421 331.78525759900896
      vertex 127.95354026991731 -175.03205915618736 325.3470818276914
      vertex 110.33196122924593 -164.86182326691841 371.01249407170093
    endloop
  endfacet
  facet normal -0.93294821875408118 2.5894514831095205e-17 -0.36001058473826464
    outer loop
      vertex 110.33196122924593 -164.86182326691841 371.01249407170093
      vertex 91.7669860518875 -185.13431607508306 419.12263654299079
      vertex 92.604296921873683 -134.25583313415643 416.95279010565628
    endloop
  endfacet
  facet normal -0.93294821875408118 -8.4199036521182911e-17 -0.36001058473826469
    outer loop
      vertex 110.33196122924593 -164.86182326691841 371.01249407170093
      vertex 105.40856727821374 -209.60308100774597 383.77120676393889
      vertex 91.7669860518875 -185.13431607508306 419.12263654299079
    endloop
  endfacet
  facet normal -0.93294821875408118 -1.7802478946377955e-16 -0.36001058473826419
    outer loop
      vertex 109.76204601927157 -54.215994825893517 372.4893989254096
      vertex 92.443562557984876 -80.904653755493428 417.36932463224991
      vertex 91.526558318145348 -27.833712999664385 419.74569218480451
    endloop
  endfacet
  facet normal -0.93294821875408118 2.5894514831095205e-16 -0.36001058473826447
    outer loop
      vertex 109.76204601927157 -54.215994825893517 372.4893989254096
      vertex 91.526558318145348 -27.833712999664385 419.74569218480451
      vertex 105.34271227845579 -5.1130450173807276 383.9418664815272
    endloop
  endfacet
  facet normal -0.93294826336319558 -1.3861172675878698e-08 -0.36001046913610379
    outer loop
      vertex 187.45692428525788 -63.580503983881329 171.14716413764233
      vertex 193.02501716785864 -8.5712220659889908 156.71774112662263
      vertex 205.88311116693254 -45.91809934914528 123.39666583203145
    endloop
  endfacet
  facet normal -0.93294834386439918 4.910234944305413e-08 -0.36001026052138074
    outer loop
      vertex 172.95149838987788 -203.47922322918535 208.73724494729339
      vertex 190.8367168639933 -205.16440405677218 162.38860751218255
      vertex 182.59036562243955 -248.99461963986789 183.75860282960278
    endloop
  endfacet
  facet normal -0.93294828111161399 -1.0991510838361424e-16 -0.36001042314200404
    outer loop
      vertex 155.03768437137248 -203.07289419144143 255.15996196436581
      vertex 172.95149838987788 -203.47922322918535 208.73724494729339
      vertex 164.67715775356518 -248.52415052042642 230.17976821261283
    endloop
  endfacet
  facet normal -0.93294825880358734 2.6919977646008889e-08 -0.3600104809520881
    outer loop
      vertex 155.51425208061033 -105.06248150748854 253.92496154052705
      vertex 163.48265261804841 -156.01051544197495 233.27526612412689
      vertex 143.75840380318172 -154.69767903094817 284.38962139154785
    endloop
  endfacet
  facet normal -0.9329482706925285 1.5205785588732098e-08 -0.36001045014252098
    outer loop
      vertex 166.25980689057889 -58.776404765925975 226.07841531540151
      vertex 147.78816673723327 -54.55724300589884 273.94670579211379
      vertex 157.04635631247214 -10.066991356518599 249.95459313528926
    endloop
  endfacet
  facet normal -0.93294825595851205 -2.5835293461643501e-08 -0.36001048832495186
    outer loop
      vertex 121.0556486061235 -9.5824170818415837 343.22261828510966
      vertex 109.76204601927157 -54.215994825893517 372.4893989254096
      vertex 105.34271227845579 -5.1130450173807276 383.9418664815272
    endloop
  endfacet
  facet normal -0.93294821875408129 -2.589451483109521e-16 -0.36001058473826403
    outer loop
      vertex 147.78816673723327 -54.55724300589884 273.94670579211379
      vertex 129.91629592110229 -50.143098597328674 320.26070529808521
      vertex 138.99269086092386 -8.0562885246179121 296.73971216403226
    endloop
  endfacet
  facet normal -0.93294829090414644 -1.4291383772062418e-08 -0.36001039776516458
    outer loop
      vertex 166.25980689057889 -58.776404765925975 226.07841531540151
      vertex 157.04635631247214 -10.066991356518599 249.95459313528926
      vertex 175.34208180416675 -12.196779455271551 202.5421686501931
    endloop
  endfacet
  facet normal -0.93294827164468652 -1.6957326258631236e-08 -0.36001044767505347
    outer loop
      vertex 155.51425208061033 -105.06248150748854 253.92496154052705
      vertex 147.78816673723327 -54.55724300589884 273.94670579211379
      vertex 166.25980689057889 -58.776404765925975 226.07841531540151
    endloop
  endfacet
  facet normal -0.93294824100087659 -3.2466422759125065e-08 -0.3600105270868747
    outer loop
      vertex 147.78816673723327 -54.55724300589884 273.94670579211379
      vertex 138.99269086092386 -8.0562885246179121 296.73971216403226
      vertex 157.04635631247214 -10.066991356518599 249.95459313528926
    endloop
  endfacet
  facet normal -0.93294833642797248 4.3201022154305572e-08 -0.36001027979250383
    outer loop
      vertex 175.34208180416675 -12.196779455271551 202.5421686501931
      vertex 193.02501716785864 -8.5712220659889908 156.71774112662263
      vertex 187.45692428525788 -63.580503983881329 171.14716413764233
    endloop
  endfacet
  facet normal -0.93294826538597964 2.4207206408540601e-09 -0.36001046389416491
    outer loop
      vertex 187.45692428525788 -63.580503983881329 171.14716413764233
      vertex 205.88311116693254 -45.91809934914528 123.39666583203145
      vertex 204.80496224535878 -99.021213488880932 126.19063194841048
    endloop
  endfacet
  facet normal -0.93294829049616679 4.1591645083243151e-08 -0.36001039882242031
    outer loop
      vertex 129.91629592110229 -50.143098597328674 320.26070529808521
      vertex 109.76204601927157 -54.215994825893517 372.4893989254096
      vertex 121.0556486061235 -9.5824170818415837 343.22261828510966
    endloop
  endfacet
  facet normal -0.93294826727359115 8.0733418614999885e-08 -0.36001045900250894
    outer loop
      vertex 129.91629592110229 -50.143098597328674 320.26070529808521
      vertex 121.0556486061235 -9.5824170818415837 343.22261828510966
      vertex 138.99269086092386 -8.0562885246179121 296.73971216403226
    endloop
  endfacet
  facet normal -0.93294833641010799 -6.2791219932268572e-08 -0.36001027983879613
    outer loop
      vertex 173.54810440469032 -108.29980171728417 207.19117149985721
      vertex 166.25980689057889 -58.776404765925975 226.07841531540151
      vertex 187.45692428525788 -63.580503983881329 171.14716413764233
    endloop
  endfacet
  facet normal -0.93294825929636771 -3.0203277816177199e-08 -0.36001047967507377
    outer loop
      vertex 163.48265261804841 -156.01051544197495 233.27526612412689
      vertex 155.03768437137248 -203.07289419144143 255.15996196436581
      vertex 143.75840380318172 -154.69767903094817 284.38962139154785
    endloop
  endfacet
  facet normal -0.93294822727955262 5.1126699461465176e-08 -0.36001056264495529
    outer loop
      vertex 127.95354026991731 -175.03205915618736 325.3470818276914
      vertex 125.46914828252245 -132.36684470922421 331.78525759900896
      vertex 143.75840380318172 -154.69767903094817 284.38962139154785
    endloop
  endfacet
  facet normal -0.93294823501940238 1.3470676497722346e-08 -0.36001054258754928
    outer loop
      vertex 143.75840380318172 -154.69767903094817 284.38962139154785
      vertex 155.03768437137248 -203.07289419144143 255.15996196436581
      vertex 138.00082306559446 -208.33693717880215 299.3100846256221
    endloop
  endfacet
  facet normal -0.93294823756924783 -1.389571483973737e-08 -0.36001053597976002
    outer loop
      vertex 138.26975500116669 -97.357096516482457 298.61316186586328
      vertex 143.75840380318172 -154.69767903094817 284.38962139154785
      vertex 125.46914828252245 -132.36684470922421 331.78525759900896
    endloop
  endfacet
  facet normal -0.93294823678511407 -1.331660217299873e-08 -0.36001053801180138
    outer loop
      vertex 155.51425208061033 -105.06248150748854 253.92496154052705
      vertex 143.75840380318172 -154.69767903094817 284.38962139154785
      vertex 138.26975500116669 -97.357096516482457 298.61316186586328
    endloop
  endfacet
  facet normal -0.93294828111161399 -5.1789033123728844e-17 -0.36001042314200404
    outer loop
      vertex 163.48265261804841 -156.01051544197495 233.27526612412689
      vertex 172.95149838987788 -203.47922322918535 208.73724494729339
      vertex 155.03768437137248 -203.07289419144143 255.15996196436581
    endloop
  endfacet
  facet normal -0.93294828111161421 -2.5889092595693978e-16 -0.36001042314200377
    outer loop
      vertex 173.54810440469032 -108.29980171728417 207.19117149985721
      vertex 155.51425208061033 -105.06248150748854 253.92496154052705
      vertex 166.25980689057889 -58.776404765925975 226.07841531540151
    endloop
  endfacet
  facet normal -0.93294834884436895 3.7202986461356957e-08 -0.36001024761604272
    outer loop
      vertex 189.58980912498166 -117.94828450495501 165.61990404427442
      vertex 181.4220918066373 -159.16524525621961 186.78612612556867
      vertex 173.54810440469032 -108.29980171728417 207.19117149985721
    endloop
  endfacet
  facet normal -0.93294835345140215 -2.189641454177022e-08 -0.36001023567715035
    outer loop
      vertex 189.58980912498166 -117.94828450495501 165.61990404427442
      vertex 173.54810440469032 -108.29980171728417 207.19117149985721
      vertex 187.45692428525788 -63.580503983881329 171.14716413764233
    endloop
  endfacet
  facet normal -0.9329483449693855 -4.1382276016328626e-08 -0.36001025765786537
    outer loop
      vertex 181.4220918066373 -159.16524525621961 186.78612612556867
      vertex 190.8367168639933 -205.16440405677218 162.38860751218255
      vertex 172.95149838987788 -203.47922322918535 208.73724494729339
    endloop
  endfacet
  facet normal -0.93294827550196657 9.0924069325876077e-09 -0.36001043767911317
    outer loop
      vertex 122.71589232443168 -89.499181293790514 338.92018084874468
      vertex 108.60766792936545 -109.80494155928666 375.48090814320005
      vertex 109.76204601927157 -54.215994825893517 372.4893989254096
    endloop
  endfacet
  facet normal -0.93294828866810509 -2.8203332031732919e-08 -0.360010403559749
    outer loop
      vertex 122.71589232443168 -89.499181293790514 338.92018084874468
      vertex 109.76204601927157 -54.215994825893517 372.4893989254096
      vertex 129.91629592110229 -50.143098597328674 320.26070529808521
    endloop
  endfacet
  facet normal -0.93294825758198796 4.2561280992472034e-08 -0.36001048411779729
    outer loop
      vertex 138.26975500116669 -97.357096516482457 298.61316186586328
      vertex 125.46914828252245 -132.36684470922421 331.78525759900896
      vertex 122.71589232443168 -89.499181293790514 338.92018084874468
    endloop
  endfacet
  facet normal -0.93294826445369861 -6.2384641751908891e-08 -0.36001046631011668
    outer loop
      vertex 138.26975500116669 -97.357096516482457 298.61316186586328
      vertex 122.71589232443168 -89.499181293790514 338.92018084874468
      vertex 129.91629592110229 -50.143098597328674 320.26070529808521
    endloop
  endfacet
  facet normal -0.9329483331199121 4.9218795831473438e-08 -0.36001028836517324
    outer loop
      vertex 166.25980689057889 -58.776404765925975 226.07841531540151
      vertex 175.34208180416675 -12.196779455271551 202.5421686501931
      vertex 187.45692428525788 -63.580503983881329 171.14716413764233
    endloop
  endfacet
  facet normal -0.93294828867399171 -5.479483976847849e-08 -0.36001040354449076
    outer loop
      vertex 189.58980912498166 -117.94828450495501 165.61990404427442
      vertex 202.41813316184687 -157.97799129356059 132.37597374255353
      vertex 181.4220918066373 -159.16524525621961 186.78612612556867
    endloop
  endfacet
  facet normal -0.93294823445379393 2.6939119770229636e-08 -0.36001054405329314
    outer loop
      vertex 155.51425208061033 -105.06248150748854 253.92496154052705
      vertex 138.26975500116669 -97.357096516482457 298.61316186586328
      vertex 147.78816673723327 -54.55724300589884 273.94670579211379
    endloop
  endfacet
  facet normal -0.93294826465369496 4.5982198108211824e-09 -0.36001046579184209
    outer loop
      vertex 189.58980912498166 -117.94828450495501 165.61990404427442
      vertex 204.80496224535878 -99.021213488880932 126.19063194841048
      vertex 202.41813316184687 -157.97799129356059 132.37597374255353
    endloop
  endfacet
  facet normal -0.93294828111161421 1.5536709937118658e-16 -0.36001042314200382
    outer loop
      vertex 173.54810440469032 -108.29980171728417 207.19117149985721
      vertex 163.48265261804841 -156.01051544197495 233.27526612412689
      vertex 155.51425208061033 -105.06248150748854 253.92496154052705
    endloop
  endfacet
  facet normal -0.93294826471263292 4.9637792980915783e-09 -0.36001046563910738
    outer loop
      vertex 189.58980912498166 -117.94828450495501 165.61990404427442
      vertex 187.45692428525788 -63.580503983881329 171.14716413764233
      vertex 204.80496224535878 -99.021213488880932 126.19063194841048
    endloop
  endfacet
  facet normal -0.93294828941523922 4.6346020647522585e-08 -0.36001040162358777
    outer loop
      vertex 202.41813316184687 -157.97799129356059 132.37597374255353
      vertex 190.8367168639933 -205.16440405677218 162.38860751218255
      vertex 181.4220918066373 -159.16524525621961 186.78612612556867
    endloop
  endfacet
  facet normal -0.93294826992710145 -1.1911087795964789e-07 -0.36001045212606525
    outer loop
      vertex 127.95354026991731 -175.03205915618736 325.3470818276914
      vertex 138.00082306559446 -208.33693717880215 299.3100846256221
      vertex 120.5387703695304 -209.96956998247322 344.56208203409864
    endloop
  endfacet
  facet normal -0.93294830426519826 -6.288296814235839e-08 -0.36001036314068385
    outer loop
      vertex 120.5387703695304 -209.96956998247322 344.56208203409864
      vertex 110.33196122924593 -164.86182326691841 371.01249407170093
      vertex 127.95354026991731 -175.03205915618736 325.3470818276914
    endloop
  endfacet
  facet normal -0.93294832609038958 -6.9225675993202312e-08 -0.36001030658181887
    outer loop
      vertex 181.4220918066373 -159.16524525621961 186.78612612556867
      vertex 172.95149838987788 -203.47922322918535 208.73724494729339
      vertex 163.48265261804841 -156.01051544197495 233.27526612412689
    endloop
  endfacet
  facet normal -0.93294832296003127 6.8118697543590622e-08 -0.36001031469398265
    outer loop
      vertex 163.48265261804841 -156.01051544197495 233.27526612412689
      vertex 173.54810440469032 -108.29980171728417 207.19117149985721
      vertex 181.4220918066373 -159.16524525621961 186.78612612556867
    endloop
  endfacet
  facet normal -0.93294825169961215 -2.4706437594968511e-09 -0.36001049936166718
    outer loop
      vertex 207.75665981746084 -1.1833011030935836 118.54146323226178
      vertex 200.51366605946777 38.779294281303251 137.31129988102316
      vertex 221.62785194285325 38.190878334534929 82.594998996914043
    endloop
  endfacet
  facet normal -0.93294825650349034 -9.188428585713395e-09 -0.36001048691266929
    outer loop
      vertex 207.75665981746084 -1.1833011030935836 118.54146323226178
      vertex 193.02501716785864 -8.5712220659889908 156.71774112662263
      vertex 200.51366605946777 38.779294281303251 137.31129988102316
    endloop
  endfacet
  facet normal -0.93294825175086105 2.1614052154122513e-09 -0.36001049922885836
    outer loop
      vertex 207.1897009541685 -209.40487949945037 120.01070725015435
      vertex 221.62776384126698 -248.19103378828572 82.595227307561714
      vertex 200.89506881451837 -250.25547111196809 136.32291473961845
    endloop
  endfacet
  facet normal -0.93294826015388954 1.2151681846735392e-08 -0.36001047745285158
    outer loop
      vertex 207.1897009541685 -209.40487949945037 120.01070725015435
      vertex 200.89506881451837 -250.25547111196809 136.32291473961845
      vertex 190.8367168639933 -205.16440405677218 162.38860751218255
    endloop
  endfacet
endsolid OBJECT
